G04 CAM350 V10.2.0 (Build 386) Date:  Sat Feb 01 15:25:49 2025 *
G04 Database: c:\users\comp1\desktop\ajinkya_\gerber data\round 115\round_pcb1.cam *
G04 Layer 40: Layer_40 *
%FSLAX24Y24*%
%MOIN*%
%SFA1.000B1.000*%

%MIA0B0*%
%IPPOS*%
%ADD27C,0.00984*%
%LNLayer_40*%
%LPD*%
G54D27*
X0Y0D02*
G01X-11692Y-11692D01*
X0Y0D02*
G01X11692Y-11692D01*
X0Y0D02*
G01X11692Y11692D01*
X0Y0D02*
G01X-11692Y11692D01*
X0Y0D02*
G01X-11692Y11692D01*
X0Y0D02*
G01X-11692Y11692D01*
X0Y0D02*
G01X-11692Y11692D01*
X0Y0D02*
G01X-11692Y11692D01*
X0Y0D02*
G01X-11692Y11692D01*
X0Y0D02*
G01X-11692Y11692D01*
X0Y0D02*
G01X-11692Y11692D01*
X0Y0D02*
G01X-11692Y11692D01*
X0Y0D02*
G01X-11692Y11692D01*
X0Y0D02*
G01X-11692Y11692D01*
X0Y0D02*
G01X-11692Y11692D01*
X0Y0D02*
G01X-11692Y11692D01*
X0Y0D02*
G01X-11692Y11692D01*
X0Y0D02*
G01X-11692Y11692D01*
X0Y0D02*
G01X-11692Y11692D01*
X0Y0D02*
G01X-11692Y11692D01*
X0Y0D02*
G01X-11692Y11692D01*
X0Y0D02*
G01X-11692Y11692D01*
X0Y0D02*
G01X-11692Y11692D01*
X0Y0D02*
G01X-11692Y11692D01*
X0Y0D02*
G01X-11692Y11692D01*
X0Y0D02*
G01X-11692Y11692D01*
X0Y0D02*
G01X-11692Y11692D01*
X0Y0D02*
G01X-11692Y11692D01*
X0Y0D02*
G01X-11692Y11692D01*
X0Y0D02*
G01X-11692Y11692D01*
X0Y0D02*
G01X-11692Y11692D01*
X0Y0D02*
G01X-11692Y11692D01*
X0Y0D02*
G01X-11692Y11692D01*
X0Y0D02*
G01X-11692Y11692D01*
X0Y0D02*
G01X-11692Y11692D01*
X0Y0D02*
G01X-11692Y11692D01*
X0Y0D02*
G01X-11692Y11692D01*
X0Y0D02*
G01X-11692Y11692D01*
X0Y0D02*
G01X-11692Y11692D01*
X0Y0D02*
G01X-11692Y11692D01*
X0Y0D02*
G01X-11692Y11692D01*
X0Y0D02*
G01X-11692Y11692D01*
X0Y0D02*
G01X-11692Y11692D01*
X0Y0D02*
G01X-11692Y11692D01*
X0Y0D02*
G01X-11692Y11692D01*
X0Y0D02*
G01X-11692Y11692D01*
X0Y0D02*
G01X-11692Y11692D01*
X0Y0D02*
G01X-11692Y11692D01*
X0Y0D02*
G01X-11692Y11692D01*
X0Y0D02*
G01X-11692Y11692D01*
X0Y0D02*
G01X-11692Y11692D01*
X0Y0D02*
G01X-11692Y11692D01*
X0Y0D02*
G01X-11692Y11692D01*
X0Y0D02*
G01X-11692Y11692D01*
X0Y0D02*
G01X-11692Y11692D01*
X0Y0D02*
G01X-11692Y11692D01*
X0Y0D02*
G01X-11692Y11692D01*
X0Y0D02*
G01X-11692Y11692D01*
X0Y0D02*
G01X-11692Y11692D01*
X0Y0D02*
G01X-11692Y11692D01*
X0Y0D02*
G01X-11692Y11692D01*
X0Y0D02*
G01X-11692Y11692D01*
X0Y0D02*
G01X-11692Y11692D01*
X0Y0D02*
G01X-11692Y11692D01*
X0Y0D02*
G01X-11692Y11692D01*
X0Y0D02*
G01X-11692Y11692D01*
X0Y0D02*
G01X-11692Y11692D01*
X0Y0D02*
G01X-11692Y11692D01*
X0Y0D02*
G01X-11692Y11692D01*
X0Y0D02*
G01X-11692Y11692D01*
X0Y0D02*
G01X-11692Y11692D01*
X0Y0D02*
G01X-11692Y11692D01*
X0Y0D02*
G01X-11692Y11692D01*
X0Y0D02*
G01X-11692Y11692D01*
X0Y0D02*
G01X-11692Y11692D01*
X0Y0D02*
G01X-11692Y11692D01*
X0Y0D02*
G01X-11692Y11692D01*
X0Y0D02*
G01X-11692Y11692D01*
X0Y0D02*
G01X-11692Y11692D01*
X0Y0D02*
G01X-11692Y11692D01*
X0Y0D02*
G01X-11692Y11692D01*
X0Y0D02*
G01X-11692Y11692D01*
X0Y0D02*
G01X-11692Y11692D01*
X0Y0D02*
G01X-11692Y11692D01*
X0Y0D02*
G01X-11692Y11692D01*
X0Y0D02*
G01X-11692Y11692D01*
X0Y0D02*
G01X-11692Y11692D01*
X0Y0D02*
G01X-11692Y11692D01*
X0Y0D02*
G01X-11692Y11692D01*
X0Y0D02*
G01X-11692Y11692D01*
X0Y0D02*
G01X-11692Y11692D01*
X0Y0D02*
G01X-11692Y11692D01*
X0Y0D02*
G01X-11692Y11692D01*
X0Y0D02*
G01X-11692Y11692D01*
X0Y0D02*
G01X-11692Y11692D01*
X0Y0D02*
G01X-11692Y11692D01*
X0Y0D02*
G01X-11692Y11692D01*
X0Y0D02*
G01X-11692Y11692D01*
X0Y0D02*
G01X-11692Y11692D01*
X0Y0D02*
G01X-11692Y11692D01*
X0Y0D02*
G01X-11692Y11692D01*
X0Y0D02*
G01X-11692Y11692D01*
X0Y0D02*
G01X-11692Y11692D01*
X0Y0D02*
G01X-11692Y11692D01*
X0Y0D02*
G01X-11692Y11692D01*
X0Y0D02*
G01X-11692Y11692D01*
X0Y0D02*
G01X-11692Y11692D01*
X0Y0D02*
G01X-11692Y11692D01*
X0Y0D02*
G01X-11692Y11692D01*
X0Y0D02*
G01X-11692Y11692D01*
X0Y0D02*
G01X-11692Y11692D01*
X0Y0D02*
G01X-11692Y11692D01*
M02*
