M48
INCH,TZ
VER,1
FMAT,2
T01C0.059055
%
T01
X5512Y8095
Y7126
X9889Y2302
X14805Y2350
X12500Y8095
X19488
X12500Y7126
X19488
X5512Y12081
Y16067
Y20054
Y24040
Y28026
Y32012
Y35998
Y11113
Y15099
Y19085
Y23071
Y27057
Y31044
Y35030
X12500Y12081
Y16067
Y20054
Y24040
Y28026
Y32012
Y35998
X19488Y12081
Y16067
Y20054
Y24040
Y28026
Y32012
Y35998
X12500Y11113
Y15099
Y19085
Y23071
Y27057
Y31044
Y35030
X19488Y11113
Y15099
Y19085
Y23071
Y27057
Y31044
Y35030
M30
