G04 CAM350 V10.2.0 (Build 386) Date:  Sat Feb 01 15:25:49 2025 *
G04 Database: c:\users\comp1\desktop\ajinkya_\gerber data\round 115\round_pcb1.cam *
G04 Layer 36: mask *
%FSLAX24Y24*%
%MOIN*%
%SFA1.000B1.000*%

%MIA0B0*%
%IPPOS*%
%ADD15C,0.00790*%
%ADD24C,0.09843*%
%ADD27C,0.00984*%
%ADD31C,0.07874*%
%ADD403R,0.04724X0.08465*%
%ADD404R,0.08346X0.08465*%
%ADD417R,0.18701X0.06890*%
%ADD418R,0.18701X0.08071*%
%ADD422R,0.24606X0.08858*%
%ADD423R,0.14764X0.08858*%
%ADD433C,0.05512*%
%LNmask*%
%LPD*%
G36*
X-21862Y23338D02*
G01Y24020D01*
X-21772*
Y23338*
X-21862*
G37*
G36*
X-17986Y23771D02*
G01Y23851D01*
X-17959Y23866*
X-17929Y23886*
X-17899Y23908*
X-17870Y23933*
X-17843Y23957*
X-17820Y23981*
X-17801Y24004*
X-17789Y24022*
X-17735*
Y23338*
X-17819*
Y23871*
X-17853Y23845*
X-17900Y23815*
X-17948Y23788*
X-17986Y23771*
G37*
G36*
X-18516D02*
G01Y23851D01*
X-18488Y23866*
X-18458Y23886*
X-18428Y23908*
X-18399Y23933*
X-18372Y23957*
X-18349Y23981*
X-18331Y24004*
X-18319Y24022*
X-18265*
Y23338*
X-18348*
Y23871*
X-18382Y23845*
X-18429Y23815*
X-18477Y23788*
X-18516Y23771*
G37*
G36*
X-16722Y23930D02*
G01Y24011D01*
X-16281*
Y23946*
X-16308Y23912*
X-16339Y23868*
X-16373Y23814*
X-16406Y23755*
X-16439Y23693*
X-16468Y23633*
X-16492Y23576*
X-16509Y23526*
X-16520Y23482*
X-16529Y23436*
X-16536Y23388*
X-16541Y23338*
X-16627*
X-16625Y23362*
X-16621Y23391*
X-16604Y23464*
X-16578Y23549*
X-16545Y23641*
X-16506Y23731*
X-16465Y23813*
X-16424Y23882*
X-16406Y23909*
X-16389Y23930*
X-16722*
G37*
G36*
X-17521Y23517D02*
G01X-17433Y23524D01*
X-17427Y23500*
X-17416Y23477*
X-17401Y23455*
X-17383Y23436*
X-17364Y23419*
X-17343Y23407*
X-17322Y23398*
X-17302Y23396*
X-17279Y23399*
X-17255Y23411*
X-17231Y23428*
X-17208Y23450*
X-17188Y23476*
X-17173Y23504*
X-17162Y23533*
X-17158Y23562*
X-17162Y23589*
X-17172Y23616*
X-17188Y23642*
X-17207Y23666*
X-17229Y23686*
X-17254Y23702*
X-17279Y23712*
X-17304Y23716*
X-17320Y23714*
X-17338Y23710*
X-17374Y23694*
X-17406Y23673*
X-17419Y23661*
X-17428Y23650*
X-17506Y23660*
X-17440Y24010*
X-17102*
Y23930*
X-17374*
X-17410Y23747*
X-17379Y23766*
X-17363Y23773*
X-17347Y23779*
X-17331Y23784*
X-17315Y23787*
X-17298Y23789*
X-17282Y23790*
X-17265Y23789*
X-17247Y23784*
X-17229Y23778*
X-17211Y23769*
X-17176Y23746*
X-17142Y23716*
X-17113Y23682*
X-17090Y23645*
X-17082Y23626*
X-17075Y23607*
X-17071Y23588*
X-17070Y23569*
X-17071Y23546*
X-17073Y23525*
X-17077Y23503*
X-17083Y23483*
X-17091Y23463*
X-17100Y23445*
X-17111Y23427*
X-17124Y23410*
X-17141Y23390*
X-17159Y23373*
X-17180Y23359*
X-17201Y23348*
X-17224Y23338*
X-17249Y23332*
X-17275Y23328*
X-17302Y23327*
X-17320Y23328*
X-17338Y23332*
X-17375Y23344*
X-17410Y23364*
X-17444Y23390*
X-17473Y23419*
X-17497Y23451*
X-17513Y23484*
X-17519Y23501*
X-17521Y23517*
G37*
G36*
X-15327Y23501D02*
G01Y23578D01*
X-15016Y24020*
X-14948*
Y23578*
X-14856*
Y23501*
X-14948*
Y23338*
X-15031*
Y23501*
X-15327*
G37*
G36*
X-14736Y23338D02*
G01Y24020D01*
X-14480*
X-14420Y24018*
X-14396Y24016*
X-14376Y24013*
X-14350Y24005*
X-14322Y23990*
X-14295Y23969*
X-14269Y23943*
X-14248Y23913*
X-14231Y23881*
X-14220Y23850*
X-14217Y23822*
X-14218Y23806*
X-14222Y23789*
X-14228Y23771*
X-14236Y23753*
X-14259Y23719*
X-14274Y23702*
X-14290Y23686*
X-14308Y23671*
X-14328Y23658*
X-14349Y23646*
X-14371Y23635*
X-14395Y23627*
X-14419Y23621*
X-14445Y23617*
X-14472Y23615*
X-14646*
Y23338*
X-14736*
G37*
G36*
X-16195Y23557D02*
G01X-16110Y23565D01*
X-16104Y23538*
X-16090Y23510*
X-16069Y23483*
X-16042Y23459*
X-16010Y23438*
X-15975Y23422*
X-15941Y23411*
X-15909Y23408*
X-15881Y23410*
X-15851Y23418*
X-15822Y23431*
X-15794Y23447*
X-15772Y23466*
X-15754Y23486*
X-15744Y23506*
X-15740Y23523*
X-15742Y23536*
X-15747Y23550*
X-15754Y23563*
X-15764Y23577*
X-15776Y23590*
X-15789Y23602*
X-15804Y23612*
X-15820Y23620*
X-15866Y23633*
X-15943Y23654*
X-16021Y23676*
X-16052Y23687*
X-16073Y23695*
X-16091Y23707*
X-16108Y23723*
X-16125Y23741*
X-16139Y23761*
X-16152Y23783*
X-16161Y23804*
X-16167Y23824*
X-16169Y23843*
X-16168Y23857*
X-16164Y23872*
X-16157Y23888*
X-16148Y23904*
X-16137Y23921*
X-16123Y23937*
X-16090Y23968*
X-16051Y23994*
X-16009Y24014*
X-15967Y24027*
X-15948Y24030*
X-15929Y24031*
X-15910Y24030*
X-15889Y24026*
X-15867Y24021*
X-15844Y24013*
X-15800Y23992*
X-15779Y23979*
X-15759Y23964*
X-15741Y23948*
X-15725Y23931*
X-15710Y23914*
X-15698Y23896*
X-15688Y23878*
X-15680Y23860*
X-15676Y23843*
X-15674Y23828*
X-15760Y23821*
X-15766Y23845*
X-15778Y23869*
X-15795Y23891*
X-15816Y23911*
X-15841Y23927*
X-15868Y23940*
X-15896Y23949*
X-15926Y23952*
X-15956Y23949*
X-15985Y23942*
X-16011Y23930*
X-16035Y23916*
X-16055Y23900*
X-16069Y23883*
X-16079Y23866*
X-16082Y23850*
X-16081Y23832*
X-16076Y23816*
X-16068Y23802*
X-16056Y23789*
X-16038Y23779*
X-16006Y23767*
X-15918Y23741*
X-15828Y23716*
X-15769Y23697*
X-15747Y23684*
X-15726Y23667*
X-15707Y23647*
X-15689Y23624*
X-15674Y23600*
X-15663Y23576*
X-15656Y23552*
X-15653Y23531*
X-15655Y23516*
X-15659Y23500*
X-15666Y23483*
X-15676Y23466*
X-15688Y23448*
X-15702Y23430*
X-15737Y23397*
X-15778Y23368*
X-15822Y23346*
X-15844Y23338*
X-15865Y23332*
X-15886Y23328*
X-15905Y23327*
X-15929Y23328*
X-15954Y23332*
X-15979Y23338*
X-16005Y23347*
X-16030Y23357*
X-16055Y23370*
X-16078Y23385*
X-16100Y23402*
X-16121Y23420*
X-16139Y23439*
X-16155Y23459*
X-16169Y23479*
X-16180Y23500*
X-16188Y23520*
X-16193Y23539*
X-16195Y23557*
G37*
G36*
X-13203Y23338D02*
G01Y24020D01*
X-12968*
X-12931Y24019*
X-12898Y24017*
X-12870Y24014*
X-12847Y24010*
X-12819Y24002*
X-12793Y23991*
X-12769Y23977*
X-12747Y23961*
X-12727Y23940*
X-12708Y23911*
X-12690Y23877*
X-12673Y23839*
X-12660Y23799*
X-12649Y23758*
X-12642Y23719*
X-12640Y23683*
X-12642Y23651*
X-12648Y23617*
X-12657Y23582*
X-12669Y23548*
X-12685Y23514*
X-12702Y23483*
X-12722Y23455*
X-12744Y23430*
X-12768Y23407*
X-12794Y23389*
X-12821Y23373*
X-12848Y23360*
X-12877Y23350*
X-12905Y23344*
X-12932Y23339*
X-12957Y23338*
X-13203*
G37*
G36*
X-22564D02*
G01Y24020D01*
X-22330*
X-22293Y24019*
X-22260Y24017*
X-22232Y24014*
X-22209Y24010*
X-22181Y24002*
X-22154Y23991*
X-22131Y23977*
X-22109Y23961*
X-22089Y23940*
X-22069Y23911*
X-22051Y23877*
X-22035Y23839*
X-22021Y23799*
X-22011Y23758*
X-22004Y23719*
X-22001Y23683*
X-22004Y23651*
X-22009Y23617*
X-22019Y23582*
X-22031Y23548*
X-22046Y23514*
X-22064Y23483*
X-22084Y23455*
X-22105Y23430*
X-22130Y23407*
X-22155Y23389*
X-22182Y23373*
X-22210Y23360*
X-22239Y23350*
X-22267Y23344*
X-22294Y23339*
X-22319Y23338*
X-22564*
G37*
G36*
X-21684Y24020D02*
G01X-21574D01*
X-21440Y23814*
X-21404Y23757*
X-21370Y23699*
X-21337Y23756*
X-21296Y23819*
X-21164Y24020*
X-21059*
X-21331Y23627*
Y23338*
X-21421*
Y23627*
X-21684Y24020*
G37*
G36*
X-19514Y23338D02*
G01X-19251Y23693D01*
X-19483Y24020*
X-19375*
X-19252Y23845*
X-19219Y23797*
X-19197Y23761*
X-19172Y23799*
X-19143Y23839*
X-19006Y24020*
X-18908*
X-19147Y23699*
X-18890Y23338*
X-19001*
X-19173Y23581*
X-19202Y23627*
X-19235Y23576*
X-19406Y23338*
X-19514*
G37*
G36*
X-20149D02*
G01X-19885Y23693D01*
X-20117Y24020*
X-20010*
X-19887Y23845*
X-19854Y23797*
X-19832Y23761*
X-19807Y23799*
X-19778Y23839*
X-19641Y24020*
X-19543*
X-19782Y23699*
X-19524Y23338*
X-19636*
X-19807Y23581*
X-19837Y23627*
X-19869Y23576*
X-20040Y23338*
X-20149*
G37*
G36*
X-13912D02*
G01X-13651Y24020D01*
X-13554*
X-13275Y23338*
X-13378*
X-13457Y23545*
X-13742*
X-13817Y23338*
X-13912*
G37*
G36*
X-21053D02*
G01X-20792Y24020D01*
X-20694*
X-20416Y23338*
X-20518*
X-20598Y23545*
X-20883*
X-20957Y23338*
X-21053*
G37*
G36*
X1494Y-22638D02*
G01X1918Y-22606D01*
X2342Y-22566*
X2766Y-22518*
X3188Y-22462*
X3609Y-22398*
X4029Y-22326*
X4448Y-22247*
X4865Y-22159*
X5280Y-22064*
X5693Y-21961*
X6105Y-21850*
X6514Y-21732*
X6921Y-21606*
X7325Y-21472*
X7727Y-21331*
X8126Y-21182*
X8523Y-21025*
X8916Y-20862*
X9306Y-20691*
X9693Y-20512*
X10076Y-20326*
X10456Y-20134*
X10833Y-19934*
X11205Y-19727*
X11573Y-19513*
X11938Y-19292*
X12298Y-19065*
X12654Y-18830*
X13005Y-18589*
X13352Y-18342*
X13694Y-18088*
X14031Y-17828*
X14363Y-17561*
X14691Y-17288*
X15013Y-17009*
X15329Y-16725*
X15641Y-16434*
X15947Y-16137*
X16247Y-15835*
X16541Y-15527*
X16830Y-15214*
X17113Y-14895*
X17389Y-14571*
X17660Y-14242*
X17924Y-13908*
X18182Y-13569*
X18434Y-13225*
X18679Y-12877*
X18917Y-12524*
X19149Y-12166*
X19374Y-11804*
X19592Y-11439*
X19804Y-11069*
X20008Y-10695*
X20205Y-10317*
X20395Y-9936*
X20578Y-9551*
X20754Y-9163*
X20923Y-8772*
X21084Y-8377*
X21237Y-7980*
X21383Y-7580*
X21522Y-7177*
X21653Y-6772*
X21776Y-6364*
X21892Y-5954*
X22000Y-5542*
X22100Y-5128*
X22192Y-4712*
X22277Y-4294*
X22354Y-3875*
X22422Y-3455*
X22483Y-3033*
X22536Y-2610*
X22581Y-2187*
X22618Y-1762*
X22638Y-1494*
Y-22638*
X1494*
G37*
G36*
X-22638D02*
G01Y-1494D01*
G75*
G03X-1494Y-22638I22638J1494*
G01X-22638*
G37*
G36*
Y1494D02*
G01Y23031D01*
X22638*
Y1494*
G03X60Y22687I-22638J-1494*
G01X-366Y22684*
G03X-22638Y1494I366J-22684*
G37*
%LPC*%
G36*
X-15031Y23578D02*
G01Y23885D01*
X-15245Y23578*
X-15031*
G37*
G36*
X-14470Y23696D02*
G01X-14438Y23699D01*
X-14408Y23707*
X-14381Y23719*
X-14357Y23736*
X-14337Y23754*
X-14322Y23775*
X-14313Y23797*
X-14310Y23820*
X-14312Y23836*
X-14317Y23854*
X-14325Y23872*
X-14336Y23889*
X-14348Y23904*
X-14361Y23917*
X-14375Y23927*
X-14388Y23933*
X-14402Y23936*
X-14420Y23938*
X-14472Y23939*
X-14646*
Y23696*
X-14470*
G37*
G36*
X-12967Y23419D02*
G01X-12942Y23420D01*
X-12916Y23423*
X-12867Y23434*
X-12827Y23449*
X-12812Y23458*
X-12800Y23467*
X-12788Y23482*
X-12776Y23503*
X-12765Y23529*
X-12755Y23558*
X-12746Y23590*
X-12739Y23622*
X-12734Y23654*
X-12733Y23684*
X-12736Y23724*
X-12745Y23764*
X-12758Y23802*
X-12774Y23837*
X-12793Y23868*
X-12813Y23894*
X-12834Y23914*
X-12853Y23925*
X-12874Y23931*
X-12900Y23936*
X-12932Y23938*
X-12970Y23939*
X-13113*
Y23419*
X-12967*
G37*
G36*
X-22329D02*
G01X-22303Y23420D01*
X-22278Y23423*
X-22229Y23434*
X-22188Y23449*
X-22173Y23458*
X-22162Y23467*
X-22150Y23482*
X-22138Y23503*
X-22127Y23529*
X-22116Y23558*
X-22107Y23590*
X-22100Y23622*
X-22096Y23654*
X-22094Y23684*
X-22098Y23724*
X-22106Y23764*
X-22119Y23802*
X-22136Y23837*
X-22155Y23868*
X-22175Y23894*
X-22195Y23914*
X-22215Y23925*
X-22236Y23931*
X-22262Y23936*
X-22294Y23938*
X-22331Y23939*
X-22474*
Y23419*
X-22329*
G37*
G36*
X-13485Y23618D02*
G01X-13556Y23807D01*
X-13584Y23885*
X-13604Y23948*
X-13612Y23915*
X-13620Y23883*
X-13630Y23850*
X-13641Y23818*
X-13716Y23618*
X-13485*
G37*
G36*
X-20626D02*
G01X-20697Y23807D01*
X-20725Y23885*
X-20745Y23948*
X-20752Y23915*
X-20761Y23883*
X-20771Y23850*
X-20782Y23818*
X-20857Y23618*
X-20626*
G37*
%LPD*%
G54D24*
X0Y0D03*
G54D422*
X8881Y129D03*
G54D423*
X5243D03*
G54D422*
X8881Y1704D03*
G54D423*
X5243D03*
G54D24*
X-11692Y-11692D03*
Y11692D03*
X11692D03*
Y-11692D03*
X-18651Y19015D03*
X19169Y19612D03*
Y-18359D03*
X-17929Y-19930D03*
G54D31*
X-12982Y15164D03*
X14300Y14756D03*
X13043Y-15794D03*
X-12354Y-16344D03*
G54D403*
X-19680Y-33792D03*
G54D404*
X-20649D03*
G54D24*
X-7473Y-33903D03*
G54D417*
X-6912Y-2102D03*
G54D418*
Y-1102D03*
G54D417*
X-5543Y3892D03*
G54D418*
Y4892D03*
G54D417*
X5Y6559D03*
G54D418*
Y7559D03*
G54D417*
X5941Y4246D03*
G54D418*
Y5246D03*
G54D417*
X6939Y-3478D03*
G54D418*
Y-2478D03*
G54D417*
X3068Y-6914D03*
G54D418*
Y-5914D03*
G54D417*
X-3080Y-6911D03*
G54D418*
Y-5911D03*
G54D417*
X-7595Y8521D03*
G54D418*
Y9521D03*
G54D417*
X-3Y11284D03*
G54D418*
Y12284D03*
G54D417*
X7589Y8521D03*
G54D418*
Y9521D03*
G54D417*
X12766Y2315D03*
G54D418*
Y3315D03*
G54D417*
X10226Y-6433D03*
G54D418*
Y-5433D03*
G54D417*
X4037Y-11626D03*
G54D418*
Y-10626D03*
G54D417*
X-4042Y-11626D03*
G54D418*
Y-10626D03*
G54D417*
X-10231Y-6433D03*
G54D418*
Y-5433D03*
G54D417*
X-11634Y1524D03*
G54D418*
Y2524D03*
G54D417*
X-8270Y13793D03*
G54D418*
Y14793D03*
G54D417*
X-3Y16008D03*
G54D418*
Y17008D03*
G54D417*
X8265Y13793D03*
G54D418*
Y14793D03*
G54D417*
X14317Y7741D03*
G54D418*
Y8741D03*
G54D417*
X16533Y-527D03*
G54D418*
Y473D03*
G54D417*
X14317Y-8795D03*
G54D418*
Y-7795D03*
G54D417*
X8265Y-14847D03*
G54D418*
Y-13847D03*
G54D417*
X-3Y-17063D03*
G54D418*
Y-16063D03*
G54D417*
X-8270Y-14847D03*
G54D418*
Y-13847D03*
G54D417*
X-14323Y-8795D03*
G54D418*
Y-7795D03*
G54D417*
X-16538Y-527D03*
G54D418*
Y473D03*
X-14323Y8741D03*
G54D417*
Y7741D03*
G54D433*
X-14772Y8739D03*
X-13899Y8750D03*
X-14743Y7742D03*
X-13881Y7712D03*
X-14772Y8739D03*
X-13899Y8750D03*
X-14743Y7742D03*
X-13881Y7712D03*
X-8066Y9535D03*
X-7193Y9547D03*
X-8036Y8538D03*
X-7175Y8509D03*
X-8750Y14798D03*
X-7877Y14810D03*
X-8720Y13802D03*
X-7859Y13772D03*
X-434Y16984D03*
X439Y16996D03*
X-404Y15987D03*
X457Y15957D03*
X-469Y12311D03*
X404Y12322D03*
X-439Y11314D03*
X422Y11284D03*
X7776Y14800D03*
X8649Y14811D03*
X7806Y13803D03*
X8667Y13773D03*
X7104Y9566D03*
X7977Y9578D03*
X7133Y8569D03*
X7994Y8540D03*
X13863Y8764D03*
X14736Y8776D03*
X13893Y7767D03*
X14754Y7737D03*
X12270Y3345D03*
X13143Y3357D03*
X12300Y2348D03*
X13161Y2319D03*
X5441Y5256D03*
X6314Y5268D03*
X5470Y4259D03*
X6331Y4230D03*
X6408Y-2511D03*
X7281Y-2500D03*
X6438Y-3508D03*
X7299Y-3538D03*
X16104Y461D03*
X16977Y473D03*
X16134Y-536D03*
X16995Y-565D03*
X13852Y-7800D03*
X14724Y-7788D03*
X13881Y-8796D03*
X14742Y-8826D03*
X9770Y-5428D03*
X10643Y-5417D03*
X9800Y-6425D03*
X10661Y-6455D03*
X2610Y-5888D03*
X3483Y-5876D03*
X2639Y-6885D03*
X3500Y-6915D03*
X-3536Y-5935D03*
X-2663Y-5924D03*
X-3506Y-6932D03*
X-2645Y-6962D03*
X-7363Y-1135D03*
X-6491Y-1123D03*
X-7334Y-2131D03*
X-6473Y-2161D03*
X-433Y7565D03*
X440Y7577D03*
X-404Y6568D03*
X457Y6539D03*
X-6083Y4899D03*
X-5211Y4911D03*
X-6054Y3902D03*
X-5193Y3872D03*
X-12170Y2516D03*
X-11297Y2528D03*
X-12141Y1519D03*
X-11280Y1490D03*
G54D15*
X20669Y23031D02*
G01X22638D01*
Y21063*
X20669Y-22638D02*
G01X22638D01*
Y-20669*
X-22638D02*
G01Y-22638D01*
X-20670*
G01X-21962Y-23885D02*
Y-24789D01*
Y-23885D02*
X-21618Y-24789D01*
X-21273Y-23885D02*
X-21618Y-24789D01*
X-21273Y-23885D02*
Y-24789D01*
X-20634Y-23885D02*
X-20979Y-24789D01*
X-20634Y-23885D02*
X-20290Y-24789D01*
X-20850Y-24488D02*
X-20419D01*
X-19436Y-24014D02*
X-19522Y-23928D01*
X-19651Y-23885D01*
X-19824D01*
X-19953Y-23928D01*
X-20039Y-24014D01*
Y-24100D01*
X-19996Y-24187D01*
X-19953Y-24230D01*
X-19867Y-24273D01*
X-19608Y-24359D01*
X-19522Y-24402D01*
X-19479Y-24445D01*
X-19436Y-24531D01*
Y-24660D01*
X-19522Y-24746D01*
X-19651Y-24789D01*
X-19824D01*
X-19953Y-24746D01*
X-20039Y-24660D01*
X-19056Y-23885D02*
Y-24789D01*
X-18453Y-23885D02*
X-19056Y-24488D01*
X-18841Y-24273D02*
X-18453Y-24789D01*
X-17305Y-23885D02*
Y-24789D01*
Y-24789D02*
X-16789D01*
X-16279Y-23885D02*
X-16624Y-24789D01*
X-16279Y-23885D02*
X-15935Y-24789D01*
X-16494Y-24488D02*
X-16064D01*
X-15770Y-23885D02*
X-15425Y-24316D01*
Y-24789D01*
X-15081Y-23885D02*
X-15425Y-24316D01*
X-14787Y-23885D02*
Y-24789D01*
Y-23885D02*
X-14227D01*
X-14787Y-24316D02*
X-14442D01*
X-14787Y-24789D02*
X-14227D01*
X-13890Y-23885D02*
Y-24789D01*
Y-23885D02*
X-13502D01*
X-13373Y-23928D01*
X-13330Y-23971D01*
X-13287Y-24057D01*
Y-24143D01*
X-13330Y-24230D01*
X-13373Y-24273D01*
X-13502Y-24316D01*
X-13890D01*
X-13588D02*
X-13287Y-24789D01*
X-20669Y23031D02*
G01X-22638D01*
Y21063*
G54D27*
X3893Y1352D02*
G01Y1976D01*
X4143Y49D02*
G01X3519D01*
X3840Y-258D02*
G01Y367D01*
M02*
