M48
INCH,TZ
VER,1
FMAT,2
T01C0.055118
%
T01
X-14772Y8739
X-13899Y8750
X-14743Y7742
X-13881Y7712
X-14814Y8768
X-13941Y8780
X-14784Y7771
X-13923Y7742
X-8102Y9558
X-7229Y9570
X-8072Y8561
X-7211Y8532
X-8762Y14817
X-7889Y14829
X-8732Y13820
X-7871Y13791
X-446Y17005
X427Y17017
X-416Y16008
X445Y15978
X7859Y14817
X8732Y14828
X7889Y13820
X8750Y13790
X-392Y12315
X481Y12327
X-363Y11319
X498Y11289
X7143Y9552
X8016Y9564
X7172Y8555
X8033Y8526
X13867Y8747
X14740Y8759
X13896Y7750
X14757Y7720
X-501Y7626
X372Y7638
X-472Y6629
X389Y6600
X-6022Y4878
X-5149Y4889
X-5992Y3881
X-5131Y3851
X-12111Y2507
X-11239Y2519
X-12082Y1511
X-11221Y1481
X5480Y5211
X6352Y5223
X5509Y4215
X6370Y4185
X12209Y3389
X13082Y3400
X12239Y2392
X13100Y2362
X16108Y499
X16981Y511
X16137Y-498
X16998Y-528
X6518Y-2421
X7391Y-2409
X6547Y-3418
X7408Y-3447
X-7355Y-1100
X-6482Y-1088
X-7326Y-2097
X-6465Y-2126
X-16980Y439
X-16107Y451
X-16951Y-558
X-16090Y-587
X-3533Y-5848
X-2660Y-5837
X-3503Y-6845
X-2642Y-6875
X2654Y-5878
X3527Y-5866
X2684Y-6874
X3545Y-6904
X9809Y-5447
X10682Y-5435
X9839Y-6444
X10700Y-6474
X13808Y-7771
X14681Y-7759
X13837Y-8768
X14698Y-8798
X3716Y-10596
X4589Y-10585
X3745Y-11593
X4606Y-11623
X7797Y-13840
X8670Y-13828
X7827Y-14837
X8688Y-14867
X-472Y-16010
X401Y-15998
X-443Y-17007
X419Y-17037
X-4524Y-10678
X-3651Y-10667
X-4494Y-11675
X-3633Y-11705
X-8735Y-13816
X-7862Y-13804
X-8706Y-14813
X-7844Y-14843
X-14798Y-7776
X-13926Y-7764
X-14769Y-8773
X-13908Y-8802
X-10758Y-5452
X-9885Y-5441
X-10728Y-6449
X-9867Y-6479
M30
