G04 CAM350 V10.2.0 (Build 386) Date:  Sat Feb 01 15:25:49 2025 *
G04 Database: c:\users\comp1\desktop\ajinkya_\gerber data\round 115\round_pcb1.cam *
G04 Layer 39: clearance *
%FSLAX24Y24*%
%MOIN*%
%SFA1.000B1.000*%

%MIA0B0*%
%IPPOS*%
%ADD24C,0.09843*%
%ADD35C,0.03937*%
%ADD42C,0.09843*%
%ADD53C,0.39370*%
%ADD65C,0.15748*%
%LNclearance*%
%LPD*%
G54D53*
X-7473Y-33903D03*
G54D65*
X-21823Y22206D03*
X21965Y22279D03*
Y-21898D03*
X-22035Y-21981D03*
G54D53*
X0Y0D03*
X-11692Y-11692D03*
Y11692D03*
X11692D03*
Y-11692D03*
X-18651Y19015D03*
X19169Y19612D03*
Y-18359D03*
X-17929Y-19930D03*
G54D42*
X-12982Y15164D03*
X14300Y14756D03*
X13043Y-15794D03*
X-12354Y-16344D03*
G54D24*
X22638Y0D02*
G75*
G03X22638Y0I-22638D01*
G54D35*
X1446Y867D02*
G01X10702D01*
Y867D02*
G01X14319Y-2481D01*
X22503Y-2469*
X-7951Y4311D02*
G01X-10182D01*
Y9001*
X-3357*
Y6965*
X5983*
Y9098*
X12158*
Y8165*
X21097*
X-10182Y9001D02*
G01Y14268D01*
X-6836*
Y11737*
X2328*
Y15416*
X-2084*
Y16565*
X6889*
Y14301*
X9935*
Y20232*
X-13171Y8224D02*
G01X-15585D01*
Y10853*
X-12738*
X-10182Y4311D02*
G01X-12671D01*
Y2006*
X-10241*
Y-1648*
X-5163*
Y-2855*
X-10189*
X-13171Y8224D02*
G01X-13203Y6643D01*
X-17790Y5217D02*
G01Y-51D01*
X-15351*
Y-4906*
X-16807*
Y-8354*
X-12746*
Y-14348*
X-6819*
Y-21572*
X-14959Y5222D02*
G01X-17790Y5217D01*
X-13203Y6643D02*
G01X-15018D01*
Y5222*
X-2043Y-5061D02*
G01Y908D01*
X-10189Y-2855D02*
G01X-11663D01*
Y-6000*
X-8193*
Y-11148*
X-2939*
X-1328Y-16605D02*
G01X1693D01*
Y-22575*
X-2043Y-5061D02*
G01X-4448D01*
Y-6461*
X4732*
Y-8327*
X2235*
Y-11206*
X5506*
Y-12742*
Y-12742D02*
G01X866D01*
Y-14673*
X-1323*
Y-16605*
X-2939Y-11148D02*
G01Y-12946D01*
X-4919*
Y-22121*
X1190Y-757D02*
G01Y-3063D01*
X8357*
Y-5909*
X11711*
Y-8331*
X15931*
X11692*
X15931D02*
G01Y-11120D01*
X13118*
X9897Y-12269D02*
G01X7042D01*
Y-14409*
X9639*
Y-20501*
X-7951Y944D02*
G01Y4311D01*
X2237*
Y4776*
X11143*
Y2717*
X14522*
Y-72*
X22638*
X1446Y867D02*
G01X-7951Y944D01*
M02*
