G04 CAM350 V10.2.0 (Build 386) Date:  Sat Feb 01 15:19:24 2025 *
G04 Database: c:\users\comp1\desktop\ajinkya_\388x19 cdr\388x19.cam *
G04 Layer 46: Layer_46 *
%FSLAX24Y24*%
%MOIN*%
%SFA1.000B1.000*%

%MIA0B0*%
%IPPOS*%
%LNLayer_46*%
%LPD*%
G54D411*
X603Y657D03*
X152083Y740D03*
Y6728D03*
X815Y6654D03*
G54D35*
X4158Y3543D03*
X10457D03*
X16756D03*
X23055D03*
X29355D03*
X35654D03*
X41953D03*
X48252D03*
X54552D03*
X60851D03*
X67150D03*
X73449D03*
X80526Y3560D03*
X86048Y3543D03*
X92347D03*
X98646D03*
X104945D03*
X111244D03*
X117544D03*
X123843D03*
X130142D03*
X136441D03*
X143241Y3494D03*
X149040Y3543D03*
G54D412*
X3189D03*
X9489D03*
X15788D03*
X22087D03*
X28386D03*
X34685D03*
X40985D03*
X47284D03*
X53583D03*
X59882D03*
X66181D03*
X72481D03*
X79558Y3560D03*
X85079Y3543D03*
X91378D03*
X97678D03*
X103977D03*
X110276D03*
X116575D03*
X122874D03*
X129174D03*
X135473D03*
X142272Y3494D03*
X148071Y3543D03*
G54D15*
X3543D03*
X9843D03*
X16142D03*
X22441D03*
X28740D03*
X35039D03*
X41339D03*
X47638D03*
X53937D03*
X60236D03*
X66535D03*
X72835D03*
X79912Y3560D03*
X85433Y3543D03*
X91732D03*
X98031D03*
X104331D03*
X110630D03*
X116929D03*
X123228D03*
X129528D03*
X135827D03*
X142626Y3494D03*
X148425Y3543D03*
G54D55*
X12992D03*
X76772D03*
X139969D03*
G54D81*
X1659Y2035D03*
X1624Y4970D03*
X151120Y2260D03*
X151085Y5196D03*
G54D26*
X4767Y6087D03*
X147850Y1366D03*
M02*
