G04 CAM350 V10.2.0 (Build 386) Date:  Sat Feb 01 15:25:49 2025 *
G04 Database: c:\users\comp1\desktop\ajinkya_\gerber data\round 115\round_pcb1.cam *
G04 Layer 37: ident *
%FSLAX24Y24*%
%MOIN*%
%SFA1.000B1.000*%

%MIA0B0*%
%IPPOS*%
%AMmoire1x1x0x0x2x90*
6,0,0,0.00000,0.02559,0.02000,0,0.01000,0.05906,270.00000*
%
%ADD15C,0.00790*%
%ADD309C,0.01181*%
%ADD405moire1x1x0x0x2x90*%
%LNident*%
%LPD*%
G36*
X-21862Y23338D02*
G01Y24020D01*
X-21772*
Y23338*
X-21862*
G37*
G36*
X-7439Y-19494D02*
G01Y-18737D01*
X-7339*
Y-19494*
X-7439*
G37*
G36*
X-17986Y23771D02*
G01Y23851D01*
X-17959Y23866*
X-17929Y23886*
X-17899Y23908*
X-17870Y23933*
X-17843Y23957*
X-17820Y23981*
X-17801Y24004*
X-17789Y24022*
X-17735*
Y23338*
X-17819*
Y23871*
X-17853Y23845*
X-17900Y23815*
X-17948Y23788*
X-17986Y23771*
G37*
G36*
X-18516D02*
G01Y23851D01*
X-18488Y23866*
X-18458Y23886*
X-18428Y23908*
X-18399Y23933*
X-18372Y23957*
X-18349Y23981*
X-18331Y24004*
X-18319Y24022*
X-18265*
Y23338*
X-18348*
Y23871*
X-18382Y23845*
X-18429Y23815*
X-18477Y23788*
X-18516Y23771*
G37*
G36*
X-2503Y-19014D02*
G01Y-18924D01*
X-2472Y-18907*
X-2439Y-18886*
X-2406Y-18861*
X-2374Y-18834*
X-2344Y-18806*
X-2318Y-18779*
X-2297Y-18755*
X-2284Y-18734*
X-2224*
Y-19494*
X-2317*
Y-18902*
X-2354Y-18931*
X-2407Y-18964*
X-2461Y-18994*
X-2503Y-19014*
G37*
G36*
X-3170D02*
G01Y-18924D01*
X-3139Y-18907*
X-3106Y-18886*
X-3073Y-18861*
X-3040Y-18834*
X-3010Y-18806*
X-2984Y-18779*
X-2964Y-18755*
X-2951Y-18734*
X-2891*
Y-19494*
X-2984*
Y-18902*
X-3021Y-18931*
X-3073Y-18964*
X-3127Y-18994*
X-3170Y-19014*
G37*
G36*
X-16722Y23930D02*
G01Y24011D01*
X-16281*
Y23946*
X-16308Y23912*
X-16339Y23868*
X-16373Y23814*
X-16406Y23755*
X-16439Y23693*
X-16468Y23633*
X-16492Y23576*
X-16509Y23526*
X-16520Y23482*
X-16529Y23436*
X-16536Y23388*
X-16541Y23338*
X-16627*
X-16625Y23362*
X-16621Y23391*
X-16604Y23464*
X-16578Y23549*
X-16545Y23641*
X-16506Y23731*
X-16465Y23813*
X-16424Y23882*
X-16406Y23909*
X-16389Y23930*
X-16722*
G37*
G36*
X-17521Y23517D02*
G01X-17433Y23524D01*
X-17427Y23500*
X-17416Y23477*
X-17401Y23455*
X-17383Y23436*
X-17364Y23419*
X-17343Y23407*
X-17322Y23398*
X-17302Y23396*
X-17279Y23399*
X-17255Y23411*
X-17231Y23428*
X-17208Y23450*
X-17188Y23476*
X-17173Y23504*
X-17162Y23533*
X-17158Y23562*
X-17162Y23589*
X-17172Y23616*
X-17188Y23642*
X-17207Y23666*
X-17229Y23686*
X-17254Y23702*
X-17279Y23712*
X-17304Y23716*
X-17320Y23714*
X-17338Y23710*
X-17374Y23694*
X-17406Y23673*
X-17419Y23661*
X-17428Y23650*
X-17506Y23660*
X-17440Y24010*
X-17102*
Y23930*
X-17374*
X-17410Y23747*
X-17379Y23766*
X-17363Y23773*
X-17347Y23779*
X-17331Y23784*
X-17315Y23787*
X-17298Y23789*
X-17282Y23790*
X-17265Y23789*
X-17247Y23784*
X-17229Y23778*
X-17211Y23769*
X-17176Y23746*
X-17142Y23716*
X-17113Y23682*
X-17090Y23645*
X-17082Y23626*
X-17075Y23607*
X-17071Y23588*
X-17070Y23569*
X-17071Y23546*
X-17073Y23525*
X-17077Y23503*
X-17083Y23483*
X-17091Y23463*
X-17100Y23445*
X-17111Y23427*
X-17124Y23410*
X-17141Y23390*
X-17159Y23373*
X-17180Y23359*
X-17201Y23348*
X-17224Y23338*
X-17249Y23332*
X-17275Y23328*
X-17302Y23327*
X-17320Y23328*
X-17338Y23332*
X-17375Y23344*
X-17410Y23364*
X-17444Y23390*
X-17473Y23419*
X-17497Y23451*
X-17513Y23484*
X-17519Y23501*
X-17521Y23517*
G37*
G36*
X-15327Y23501D02*
G01Y23578D01*
X-15016Y24020*
X-14948*
Y23578*
X-14856*
Y23501*
X-14948*
Y23338*
X-15031*
Y23501*
X-15327*
G37*
G36*
X-14736Y23338D02*
G01Y24020D01*
X-14480*
X-14420Y24018*
X-14396Y24016*
X-14376Y24013*
X-14350Y24005*
X-14322Y23990*
X-14295Y23969*
X-14269Y23943*
X-14248Y23913*
X-14231Y23881*
X-14220Y23850*
X-14217Y23822*
X-14218Y23806*
X-14222Y23789*
X-14228Y23771*
X-14236Y23753*
X-14259Y23719*
X-14274Y23702*
X-14290Y23686*
X-14308Y23671*
X-14328Y23658*
X-14349Y23646*
X-14371Y23635*
X-14395Y23627*
X-14419Y23621*
X-14445Y23617*
X-14472Y23615*
X-14646*
Y23338*
X-14736*
G37*
G36*
X-862Y-18836D02*
G01Y-18747D01*
X-372*
Y-18819*
X-402Y-18856*
X-437Y-18906*
X-474Y-18965*
X-511Y-19031*
X-547Y-19099*
X-580Y-19167*
X-606Y-19230*
X-625Y-19286*
X-638Y-19334*
X-648Y-19385*
X-656Y-19438*
X-661Y-19494*
X-756*
X-755Y-19468*
X-750Y-19435*
X-731Y-19354*
X-702Y-19260*
X-665Y-19158*
X-622Y-19058*
X-576Y-18966*
X-531Y-18890*
X-510Y-18860*
X-491Y-18836*
X-862*
G37*
G36*
X-1907Y-19295D02*
G01X-1810Y-19287D01*
X-1803Y-19314*
X-1791Y-19340*
X-1774Y-19364*
X-1754Y-19386*
X-1732Y-19404*
X-1709Y-19418*
X-1686Y-19427*
X-1664Y-19430*
X-1638Y-19426*
X-1611Y-19413*
X-1584Y-19394*
X-1559Y-19369*
X-1537Y-19341*
X-1520Y-19310*
X-1509Y-19278*
X-1504Y-19245*
X-1508Y-19215*
X-1520Y-19185*
X-1537Y-19156*
X-1558Y-19130*
X-1583Y-19108*
X-1610Y-19090*
X-1638Y-19078*
X-1666Y-19074*
X-1684Y-19076*
X-1704Y-19081*
X-1744Y-19099*
X-1780Y-19122*
X-1794Y-19135*
X-1804Y-19147*
X-1891Y-19136*
X-1818Y-18747*
X-1441*
Y-18836*
X-1743*
X-1784Y-19040*
X-1750Y-19019*
X-1732Y-19011*
X-1714Y-19004*
X-1696Y-18999*
X-1678Y-18995*
X-1660Y-18993*
X-1641Y-18992*
X-1622Y-18994*
X-1603Y-18998*
X-1583Y-19005*
X-1563Y-19015*
X-1523Y-19041*
X-1486Y-19074*
X-1454Y-19112*
X-1429Y-19153*
X-1419Y-19175*
X-1412Y-19196*
X-1407Y-19217*
X-1406Y-19237*
X-1407Y-19263*
X-1409Y-19287*
X-1414Y-19310*
X-1421Y-19333*
X-1429Y-19355*
X-1440Y-19376*
X-1452Y-19396*
X-1466Y-19415*
X-1485Y-19436*
X-1505Y-19455*
X-1528Y-19471*
X-1552Y-19484*
X-1577Y-19494*
X-1605Y-19501*
X-1634Y-19505*
X-1664Y-19507*
X-1684Y-19505*
X-1704Y-19501*
X-1745Y-19487*
X-1784Y-19465*
X-1821Y-19437*
X-1854Y-19404*
X-1880Y-19369*
X-1899Y-19332*
X-1904Y-19314*
X-1907Y-19295*
G37*
G36*
X-16195Y23557D02*
G01X-16110Y23565D01*
X-16104Y23538*
X-16090Y23510*
X-16069Y23483*
X-16042Y23459*
X-16010Y23438*
X-15975Y23422*
X-15941Y23411*
X-15909Y23408*
X-15881Y23410*
X-15851Y23418*
X-15822Y23431*
X-15794Y23447*
X-15772Y23466*
X-15754Y23486*
X-15744Y23506*
X-15740Y23523*
X-15742Y23536*
X-15747Y23550*
X-15754Y23563*
X-15764Y23577*
X-15776Y23590*
X-15789Y23602*
X-15804Y23612*
X-15820Y23620*
X-15866Y23633*
X-15943Y23654*
X-16021Y23676*
X-16052Y23687*
X-16073Y23695*
X-16091Y23707*
X-16108Y23723*
X-16125Y23741*
X-16139Y23761*
X-16152Y23783*
X-16161Y23804*
X-16167Y23824*
X-16169Y23843*
X-16168Y23857*
X-16164Y23872*
X-16157Y23888*
X-16148Y23904*
X-16137Y23921*
X-16123Y23937*
X-16090Y23968*
X-16051Y23994*
X-16009Y24014*
X-15967Y24027*
X-15948Y24030*
X-15929Y24031*
X-15910Y24030*
X-15889Y24026*
X-15867Y24021*
X-15844Y24013*
X-15800Y23992*
X-15779Y23979*
X-15759Y23964*
X-15741Y23948*
X-15725Y23931*
X-15710Y23914*
X-15698Y23896*
X-15688Y23878*
X-15680Y23860*
X-15676Y23843*
X-15674Y23828*
X-15760Y23821*
X-15766Y23845*
X-15778Y23869*
X-15795Y23891*
X-15816Y23911*
X-15841Y23927*
X-15868Y23940*
X-15896Y23949*
X-15926Y23952*
X-15956Y23949*
X-15985Y23942*
X-16011Y23930*
X-16035Y23916*
X-16055Y23900*
X-16069Y23883*
X-16079Y23866*
X-16082Y23850*
X-16081Y23832*
X-16076Y23816*
X-16068Y23802*
X-16056Y23789*
X-16038Y23779*
X-16006Y23767*
X-15918Y23741*
X-15828Y23716*
X-15769Y23697*
X-15747Y23684*
X-15726Y23667*
X-15707Y23647*
X-15689Y23624*
X-15674Y23600*
X-15663Y23576*
X-15656Y23552*
X-15653Y23531*
X-15655Y23516*
X-15659Y23500*
X-15666Y23483*
X-15676Y23466*
X-15688Y23448*
X-15702Y23430*
X-15737Y23397*
X-15778Y23368*
X-15822Y23346*
X-15844Y23338*
X-15865Y23332*
X-15886Y23328*
X-15905Y23327*
X-15929Y23328*
X-15954Y23332*
X-15979Y23338*
X-16005Y23347*
X-16030Y23357*
X-16055Y23370*
X-16078Y23385*
X-16100Y23402*
X-16121Y23420*
X-16139Y23439*
X-16155Y23459*
X-16169Y23479*
X-16180Y23500*
X-16188Y23520*
X-16193Y23539*
X-16195Y23557*
G37*
G36*
X-13203Y23338D02*
G01Y24020D01*
X-12968*
X-12931Y24019*
X-12898Y24017*
X-12870Y24014*
X-12847Y24010*
X-12819Y24002*
X-12793Y23991*
X-12769Y23977*
X-12747Y23961*
X-12727Y23940*
X-12708Y23911*
X-12690Y23877*
X-12673Y23839*
X-12660Y23799*
X-12649Y23758*
X-12642Y23719*
X-12640Y23683*
X-12642Y23651*
X-12648Y23617*
X-12657Y23582*
X-12669Y23548*
X-12685Y23514*
X-12702Y23483*
X-12722Y23455*
X-12744Y23430*
X-12768Y23407*
X-12794Y23389*
X-12821Y23373*
X-12848Y23360*
X-12877Y23350*
X-12905Y23344*
X-12932Y23339*
X-12957Y23338*
X-13203*
G37*
G36*
X-22564D02*
G01Y24020D01*
X-22330*
X-22293Y24019*
X-22260Y24017*
X-22232Y24014*
X-22209Y24010*
X-22181Y24002*
X-22154Y23991*
X-22131Y23977*
X-22109Y23961*
X-22089Y23940*
X-22069Y23911*
X-22051Y23877*
X-22035Y23839*
X-22021Y23799*
X-22011Y23758*
X-22004Y23719*
X-22001Y23683*
X-22004Y23651*
X-22009Y23617*
X-22019Y23582*
X-22031Y23548*
X-22046Y23514*
X-22064Y23483*
X-22084Y23455*
X-22105Y23430*
X-22130Y23407*
X-22155Y23389*
X-22182Y23373*
X-22210Y23360*
X-22239Y23350*
X-22267Y23344*
X-22294Y23339*
X-22319Y23338*
X-22564*
G37*
G36*
X924Y-19313D02*
G01Y-19227D01*
X1270Y-18737*
X1346*
Y-19227*
X1448*
Y-19313*
X1346*
Y-19494*
X1253*
Y-19313*
X924*
G37*
G36*
X-21684Y24020D02*
G01X-21574D01*
X-21440Y23814*
X-21404Y23757*
X-21370Y23699*
X-21337Y23756*
X-21296Y23819*
X-21164Y24020*
X-21059*
X-21331Y23627*
Y23338*
X-21421*
Y23627*
X-21684Y24020*
G37*
G36*
X-19514Y23338D02*
G01X-19251Y23693D01*
X-19483Y24020*
X-19375*
X-19252Y23845*
X-19219Y23797*
X-19197Y23761*
X-19172Y23799*
X-19143Y23839*
X-19006Y24020*
X-18908*
X-19147Y23699*
X-18890Y23338*
X-19001*
X-19173Y23581*
X-19202Y23627*
X-19235Y23576*
X-19406Y23338*
X-19514*
G37*
G36*
X-20149D02*
G01X-19885Y23693D01*
X-20117Y24020*
X-20010*
X-19887Y23845*
X-19854Y23797*
X-19832Y23761*
X-19807Y23799*
X-19778Y23839*
X-19641Y24020*
X-19543*
X-19782Y23699*
X-19524Y23338*
X-19636*
X-19807Y23581*
X-19837Y23627*
X-19869Y23576*
X-20040Y23338*
X-20149*
G37*
G36*
X-13912D02*
G01X-13651Y24020D01*
X-13554*
X-13275Y23338*
X-13378*
X-13457Y23545*
X-13742*
X-13817Y23338*
X-13912*
G37*
G36*
X-21053D02*
G01X-20792Y24020D01*
X-20694*
X-20416Y23338*
X-20518*
X-20598Y23545*
X-20883*
X-20957Y23338*
X-21053*
G37*
G36*
X1659Y-19494D02*
G01Y-18737D01*
X1945*
X2011Y-18739*
X2038Y-18741*
X2060Y-18744*
X2089Y-18753*
X2120Y-18769*
X2150Y-18793*
X2178Y-18822*
X2202Y-18855*
X2221Y-18890*
X2233Y-18925*
X2237Y-18956*
X2235Y-18975*
X2231Y-18994*
X2224Y-19013*
X2215Y-19033*
X2189Y-19071*
X2173Y-19090*
X2155Y-19107*
X2135Y-19124*
X2113Y-19139*
X2090Y-19152*
X2065Y-19164*
X2039Y-19173*
X2012Y-19180*
X1983Y-19185*
X1953Y-19186*
X1759*
Y-19494*
X1659*
G37*
G36*
X5400D02*
G01Y-18737D01*
X5503*
X5900Y-19331*
Y-18737*
X5996*
Y-19494*
X5894*
X5496Y-18899*
Y-19494*
X5400*
G37*
G36*
X4560Y-19174D02*
G01Y-18737D01*
X4661*
Y-19174*
X4664Y-19222*
X4675Y-19268*
X4683Y-19290*
X4693Y-19310*
X4704Y-19329*
X4717Y-19346*
X4748Y-19376*
X4764Y-19388*
X4781Y-19398*
X4817Y-19412*
X4834Y-19415*
X4851Y-19416*
X4871Y-19415*
X4891Y-19412*
X4911Y-19406*
X4929Y-19399*
X4947Y-19389*
X4964Y-19377*
X4980Y-19364*
X4995Y-19349*
X5008Y-19332*
X5020Y-19313*
X5039Y-19272*
X5046Y-19249*
X5051Y-19225*
X5054Y-19200*
X5055Y-19174*
Y-18737*
X5156*
Y-19174*
X5154Y-19203*
X5150Y-19233*
X5144Y-19262*
X5135Y-19292*
X5122Y-19321*
X5108Y-19348*
X5090Y-19375*
X5071Y-19400*
X5049Y-19423*
X5025Y-19444*
X4999Y-19462*
X4972Y-19478*
X4944Y-19490*
X4916Y-19499*
X4887Y-19505*
X4860Y-19507*
X4832Y-19505*
X4805Y-19500*
X4776Y-19491*
X4749Y-19480*
X4721Y-19466*
X4696Y-19448*
X4671Y-19428*
X4649Y-19405*
X4628Y-19381*
X4611Y-19354*
X4595Y-19326*
X4583Y-19297*
X4573Y-19267*
X4566Y-19236*
X4562Y-19205*
X4560Y-19174*
G37*
G36*
X-198Y-19251D02*
G01X-103Y-19242D01*
X-96Y-19272*
X-81Y-19303*
X-57Y-19333*
X-27Y-19360*
X8Y-19383*
X46Y-19401*
X85Y-19413*
X120Y-19417*
X151Y-19414*
X184Y-19405*
X217Y-19391*
X247Y-19373*
X273Y-19352*
X292Y-19330*
X304Y-19308*
X308Y-19288*
X306Y-19274*
X301Y-19259*
X292Y-19244*
X281Y-19228*
X268Y-19214*
X253Y-19201*
X236Y-19190*
X219Y-19181*
X168Y-19166*
X83Y-19143*
X-5Y-19118*
X-39Y-19107*
X-62Y-19097*
X-82Y-19084*
X-101Y-19067*
X-120Y-19047*
X-136Y-19024*
X-150Y-19000*
X-160Y-18976*
X-167Y-18954*
X-169Y-18933*
X-168Y-18918*
X-163Y-18901*
X-156Y-18883*
X-146Y-18865*
X-133Y-18847*
X-118Y-18829*
X-81Y-18794*
X-38Y-18765*
X9Y-18743*
X55Y-18729*
X77Y-18725*
X97Y-18724*
X119Y-18725*
X143Y-18729*
X167Y-18736*
X192Y-18744*
X241Y-18768*
X264Y-18782*
X286Y-18798*
X306Y-18816*
X325Y-18835*
X341Y-18855*
X355Y-18874*
X366Y-18895*
X374Y-18914*
X379Y-18933*
X382Y-18950*
X286Y-18957*
X279Y-18931*
X266Y-18905*
X247Y-18880*
X223Y-18858*
X196Y-18840*
X166Y-18825*
X134Y-18816*
X101Y-18812*
X68Y-18815*
X36Y-18824*
X6Y-18836*
X-20Y-18852*
X-42Y-18870*
X-58Y-18888*
X-69Y-18908*
X-73Y-18926*
X-71Y-18945*
X-65Y-18963*
X-56Y-18979*
X-43Y-18993*
X-23Y-19004*
X12Y-19017*
X110Y-19046*
X210Y-19074*
X275Y-19095*
X300Y-19110*
X323Y-19129*
X345Y-19151*
X365Y-19176*
X381Y-19203*
X393Y-19230*
X402Y-19256*
X404Y-19280*
X403Y-19296*
X398Y-19314*
X390Y-19333*
X379Y-19352*
X366Y-19372*
X350Y-19392*
X311Y-19429*
X266Y-19461*
X217Y-19486*
X193Y-19495*
X169Y-19501*
X146Y-19505*
X125Y-19507*
X98Y-19505*
X70Y-19501*
X42Y-19494*
X14Y-19485*
X-14Y-19473*
X-42Y-19458*
X-68Y-19442*
X-92Y-19423*
X-115Y-19403*
X-135Y-19382*
X-154Y-19360*
X-169Y-19337*
X-181Y-19315*
X-190Y-19292*
X-196Y-19271*
X-198Y-19251*
G37*
G36*
X6243Y-19494D02*
G01Y-18737D01*
X6504*
X6545Y-18738*
X6582Y-18740*
X6613Y-18743*
X6639Y-18748*
X6670Y-18757*
X6699Y-18769*
X6725Y-18784*
X6750Y-18802*
X6772Y-18826*
X6793Y-18858*
X6814Y-18896*
X6832Y-18938*
X6847Y-18982*
X6859Y-19027*
X6866Y-19071*
X6869Y-19111*
X6866Y-19146*
X6860Y-19184*
X6850Y-19223*
X6836Y-19261*
X6819Y-19298*
X6800Y-19333*
X6778Y-19364*
X6753Y-19392*
X6727Y-19417*
X6698Y-19438*
X6668Y-19456*
X6637Y-19469*
X6605Y-19481*
X6574Y-19488*
X6544Y-19493*
X6516Y-19494*
X6243*
G37*
G36*
X-8298D02*
G01Y-18737D01*
X-8038*
X-7996Y-18738*
X-7960Y-18740*
X-7929Y-18743*
X-7903Y-18748*
X-7872Y-18757*
X-7843Y-18769*
X-7816Y-18784*
X-7792Y-18802*
X-7770Y-18826*
X-7748Y-18858*
X-7728Y-18896*
X-7710Y-18938*
X-7695Y-18982*
X-7683Y-19027*
X-7676Y-19071*
X-7673Y-19111*
X-7675Y-19146*
X-7682Y-19184*
X-7692Y-19223*
X-7706Y-19261*
X-7723Y-19298*
X-7742Y-19333*
X-7764Y-19364*
X-7788Y-19392*
X-7815Y-19417*
X-7844Y-19438*
X-7874Y-19456*
X-7905Y-19469*
X-7936Y-19481*
X-7968Y-19488*
X-7998Y-19493*
X-8025Y-19494*
X-8298*
G37*
G36*
X2817D02*
G01Y-18737D01*
X3153*
X3203Y-18741*
X3228Y-18746*
X3252Y-18753*
X3276Y-18763*
X3298Y-18774*
X3319Y-18787*
X3339Y-18801*
X3357Y-18818*
X3374Y-18835*
X3388Y-18853*
X3400Y-18872*
X3409Y-18891*
X3416Y-18909*
X3420Y-18927*
X3422Y-18943*
X3421Y-18959*
X3417Y-18975*
X3404Y-19008*
X3383Y-19040*
X3356Y-19071*
X3324Y-19099*
X3288Y-19122*
X3249Y-19140*
X3229Y-19146*
X3209Y-19149*
X3244Y-19168*
X3269Y-19187*
X3291Y-19209*
X3312Y-19232*
X3332Y-19259*
X3352Y-19288*
X3484Y-19494*
X3358*
X3258Y-19336*
X3211Y-19269*
X3186Y-19240*
X3162Y-19213*
X3140Y-19193*
X3120Y-19177*
X3102Y-19167*
X3089Y-19161*
X3067Y-19159*
X3033Y-19158*
X2917*
Y-19494*
X2817*
G37*
G36*
X-7162Y-18737D02*
G01X-7040D01*
X-6891Y-18965*
X-6851Y-19029*
X-6814Y-19093*
X-6777Y-19030*
X-6732Y-18959*
X-6585Y-18737*
X-6468*
X-6770Y-19173*
Y-19494*
X-6870*
Y-19173*
X-7162Y-18737*
G37*
G36*
X-4437Y-19494D02*
G01X-4144Y-19099D01*
X-4402Y-18737*
X-4283*
X-4145Y-18931*
X-4109Y-18985*
X-4084Y-19024*
X-4057Y-18982*
X-4025Y-18938*
X-3872Y-18737*
X-3763*
X-4029Y-19094*
X-3743Y-19494*
X-3867*
X-4057Y-19224*
X-4090Y-19173*
X-4126Y-19230*
X-4316Y-19494*
X-4437*
G37*
G36*
X-5220D02*
G01X-4928Y-19099D01*
X-5186Y-18737*
X-5067*
X-4929Y-18931*
X-4893Y-18985*
X-4868Y-19024*
X-4841Y-18982*
X-4808Y-18938*
X-4656Y-18737*
X-4547*
X-4813Y-19094*
X-4527Y-19494*
X-4651*
X-4841Y-19224*
X-4874Y-19173*
X-4910Y-19230*
X-5100Y-19494*
X-5220*
G37*
G36*
X-6383D02*
G01X-6092Y-18737D01*
X-5984*
X-5675Y-19494*
X-5789*
X-5877Y-19265*
X-6193*
X-6277Y-19494*
X-6383*
G37*
G36*
X3627Y-19125D02*
G01X3630Y-19090D01*
X3636Y-19054*
X3647Y-19018*
X3661Y-18983*
X3679Y-18949*
X3700Y-18916*
X3723Y-18884*
X3748Y-18854*
X3776Y-18826*
X3805Y-18801*
X3835Y-18779*
X3866Y-18760*
X3897Y-18745*
X3928Y-18733*
X3959Y-18726*
X3990Y-18724*
X4017Y-18726*
X4047Y-18733*
X4078Y-18744*
X4110Y-18759*
X4141Y-18779*
X4173Y-18801*
X4203Y-18827*
X4231Y-18856*
X4257Y-18887*
X4281Y-18919*
X4301Y-18953*
X4319Y-18987*
X4333Y-19021*
X4343Y-19055*
X4349Y-19087*
X4351Y-19116*
X4349Y-19147*
X4342Y-19179*
X4332Y-19213*
X4318Y-19248*
X4300Y-19282*
X4278Y-19316*
X4254Y-19348*
X4228Y-19379*
X4199Y-19407*
X4169Y-19432*
X4137Y-19454*
X4106Y-19473*
X4074Y-19487*
X4044Y-19498*
X4015Y-19504*
X3989Y-19507*
X3961Y-19504*
X3931Y-19497*
X3899Y-19486*
X3867Y-19470*
X3835Y-19451*
X3804Y-19428*
X3774Y-19402*
X3746Y-19374*
X3720Y-19343*
X3696Y-19311*
X3676Y-19279*
X3659Y-19245*
X3645Y-19213*
X3635Y-19181*
X3629Y-19152*
X3627Y-19125*
G37*
%LPC*%
G36*
X-15031Y23578D02*
G01Y23885D01*
X-15245Y23578*
X-15031*
G37*
G36*
X-14470Y23696D02*
G01X-14438Y23699D01*
X-14408Y23707*
X-14381Y23719*
X-14357Y23736*
X-14337Y23754*
X-14322Y23775*
X-14313Y23797*
X-14310Y23820*
X-14312Y23836*
X-14317Y23854*
X-14325Y23872*
X-14336Y23889*
X-14348Y23904*
X-14361Y23917*
X-14375Y23927*
X-14388Y23933*
X-14402Y23936*
X-14420Y23938*
X-14472Y23939*
X-14646*
Y23696*
X-14470*
G37*
G36*
X-12967Y23419D02*
G01X-12942Y23420D01*
X-12916Y23423*
X-12867Y23434*
X-12827Y23449*
X-12812Y23458*
X-12800Y23467*
X-12788Y23482*
X-12776Y23503*
X-12765Y23529*
X-12755Y23558*
X-12746Y23590*
X-12739Y23622*
X-12734Y23654*
X-12733Y23684*
X-12736Y23724*
X-12745Y23764*
X-12758Y23802*
X-12774Y23837*
X-12793Y23868*
X-12813Y23894*
X-12834Y23914*
X-12853Y23925*
X-12874Y23931*
X-12900Y23936*
X-12932Y23938*
X-12970Y23939*
X-13113*
Y23419*
X-12967*
G37*
G36*
X-22329D02*
G01X-22303Y23420D01*
X-22278Y23423*
X-22229Y23434*
X-22188Y23449*
X-22173Y23458*
X-22162Y23467*
X-22150Y23482*
X-22138Y23503*
X-22127Y23529*
X-22116Y23558*
X-22107Y23590*
X-22100Y23622*
X-22096Y23654*
X-22094Y23684*
X-22098Y23724*
X-22106Y23764*
X-22119Y23802*
X-22136Y23837*
X-22155Y23868*
X-22175Y23894*
X-22195Y23914*
X-22215Y23925*
X-22236Y23931*
X-22262Y23936*
X-22294Y23938*
X-22331Y23939*
X-22474*
Y23419*
X-22329*
G37*
G36*
X1253Y-19227D02*
G01Y-18886D01*
X1016Y-19227*
X1253*
G37*
G36*
X-13485Y23618D02*
G01X-13556Y23807D01*
X-13584Y23885*
X-13604Y23948*
X-13612Y23915*
X-13620Y23883*
X-13630Y23850*
X-13641Y23818*
X-13716Y23618*
X-13485*
G37*
G36*
X-20626D02*
G01X-20697Y23807D01*
X-20725Y23885*
X-20745Y23948*
X-20752Y23915*
X-20761Y23883*
X-20771Y23850*
X-20782Y23818*
X-20857Y23618*
X-20626*
G37*
G36*
X1955Y-19097D02*
G01X1990Y-19094D01*
X2024Y-19085*
X2054Y-19071*
X2081Y-19053*
X2102Y-19031*
X2119Y-19008*
X2130Y-18984*
X2134Y-18959*
X2131Y-18940*
X2125Y-18921*
X2116Y-18901*
X2105Y-18882*
X2091Y-18865*
X2076Y-18851*
X2061Y-18840*
X2046Y-18833*
X2031Y-18830*
X2010Y-18828*
X1953Y-18826*
X1759*
Y-19097*
X1955*
G37*
G36*
X6505Y-19404D02*
G01X6533Y-19403D01*
X6562Y-19400*
X6616Y-19387*
X6661Y-19370*
X6678Y-19361*
X6690Y-19351*
X6704Y-19334*
X6717Y-19311*
X6730Y-19282*
X6741Y-19249*
X6751Y-19214*
X6759Y-19179*
X6764Y-19143*
X6766Y-19110*
X6762Y-19065*
X6752Y-19021*
X6738Y-18979*
X6720Y-18939*
X6699Y-18905*
X6676Y-18876*
X6654Y-18855*
X6632Y-18842*
X6609Y-18835*
X6579Y-18830*
X6544Y-18827*
X6502Y-18826*
X6343*
Y-19404*
X6505*
G37*
G36*
X-8037D02*
G01X-8008Y-19403D01*
X-7980Y-19400*
X-7926Y-19387*
X-7881Y-19370*
X-7864Y-19361*
X-7851Y-19351*
X-7838Y-19334*
X-7825Y-19311*
X-7812Y-19282*
X-7800Y-19249*
X-7791Y-19214*
X-7783Y-19179*
X-7778Y-19143*
X-7776Y-19110*
X-7780Y-19065*
X-7789Y-19021*
X-7804Y-18979*
X-7822Y-18939*
X-7843Y-18905*
X-7865Y-18876*
X-7888Y-18855*
X-7910Y-18842*
X-7933Y-18835*
X-7962Y-18830*
X-7998Y-18827*
X-8039Y-18826*
X-8198*
Y-19404*
X-8037*
G37*
G36*
X3132Y-19071D02*
G01X3167Y-19068D01*
X3202Y-19060*
X3234Y-19047*
X3263Y-19030*
X3286Y-19009*
X3304Y-18987*
X3315Y-18964*
X3319Y-18943*
X3315Y-18923*
X3305Y-18902*
X3290Y-18881*
X3269Y-18862*
X3245Y-18845*
X3217Y-18832*
X3188Y-18824*
X3157Y-18821*
X2917*
Y-19071*
X3132*
G37*
G36*
X-5908Y-19183D02*
G01X-5987Y-18973D01*
X-6019Y-18886*
X-6041Y-18816*
X-6049Y-18853*
X-6058Y-18889*
X-6069Y-18925*
X-6082Y-18961*
X-6165Y-19183*
X-5908*
G37*
G36*
X3732Y-19153D02*
G01X3737Y-19179D01*
X3745Y-19205*
X3755Y-19231*
X3768Y-19256*
X3783Y-19280*
X3818Y-19325*
X3837Y-19346*
X3858Y-19364*
X3879Y-19380*
X3901Y-19394*
X3923Y-19406*
X3946Y-19414*
X3967Y-19419*
X3989Y-19421*
X4010Y-19419*
X4032Y-19414*
X4054Y-19405*
X4077Y-19394*
X4099Y-19380*
X4120Y-19363*
X4141Y-19344*
X4161Y-19323*
X4195Y-19277*
X4210Y-19252*
X4223Y-19225*
X4233Y-19198*
X4241Y-19171*
X4246Y-19143*
X4248Y-19116*
X4246Y-19092*
X4242Y-19066*
X4235Y-19040*
X4225Y-19013*
X4212Y-18986*
X4198Y-18960*
X4181Y-18935*
X4162Y-18911*
X4142Y-18889*
X4121Y-18869*
X4098Y-18852*
X4076Y-18837*
X4053Y-18826*
X4031Y-18817*
X4010Y-18812*
X3990Y-18810*
X3970Y-18812*
X3948Y-18817*
X3927Y-18825*
X3905Y-18835*
X3883Y-18849*
X3861Y-18865*
X3840Y-18884*
X3820Y-18904*
X3802Y-18927*
X3784Y-18952*
X3769Y-18978*
X3756Y-19005*
X3745Y-19034*
X3737Y-19064*
X3732Y-19095*
X3731Y-19127*
X3732Y-19153*
G37*
%LPD*%
G54D405*
X-18883Y-33790D03*
G54D15*
X20669Y-22638D02*
G01X22638D01*
Y-20669*
X-22638D02*
G01Y-22638D01*
X-20670*
G01X-21402Y-24014D02*
X-21488Y-23928D01*
X-21618Y-23885D01*
X-21790D01*
X-21919Y-23928D01*
X-22005Y-24014D01*
Y-24100D01*
X-21962Y-24187D01*
X-21919Y-24230D01*
X-21833Y-24273D01*
X-21574Y-24359D01*
X-21488Y-24402D01*
X-21445Y-24445D01*
X-21402Y-24531D01*
Y-24660D01*
X-21488Y-24746D01*
X-21618Y-24789D01*
X-21790D01*
X-21919Y-24746D01*
X-22005Y-24660D01*
X-21022Y-23885D02*
Y-24789D01*
X-20599Y-23885D02*
Y-24789D01*
Y-24789D02*
X-20082D01*
X-19788Y-23885D02*
Y-24789D01*
X-19185Y-23885D02*
X-19788Y-24488D01*
X-19573Y-24273D02*
X-19185Y-24789D01*
X-18037Y-23885D02*
Y-24789D01*
Y-24789D02*
X-17521D01*
X-17011Y-23885D02*
X-17356Y-24789D01*
X-17011Y-23885D02*
X-16667Y-24789D01*
X-17227Y-24488D02*
X-16796D01*
X-16502Y-23885D02*
X-16157Y-24316D01*
Y-24789D01*
X-15813Y-23885D02*
X-16157Y-24316D01*
X-15519Y-23885D02*
Y-24789D01*
Y-23885D02*
X-14959D01*
X-15519Y-24316D02*
X-15174D01*
X-15519Y-24789D02*
X-14959D01*
X-14622Y-23885D02*
Y-24789D01*
Y-23885D02*
X-14234D01*
X-14105Y-23928D01*
X-14062Y-23971D01*
X-14019Y-24057D01*
Y-24143D01*
X-14062Y-24230D01*
X-14105Y-24273D01*
X-14234Y-24316D01*
X-14622D01*
X-14321D02*
X-14019Y-24789D01*
X20669Y23031D02*
G01X22638D01*
Y21063*
X-20669Y23031D02*
G01X-22638D01*
Y21063*
G54D309*
X-6870Y288D02*
G01Y-303D01*
X-6575Y-7D02*
G01X-7165D01*
X-5501Y6282D02*
G01Y5691D01*
X-5205Y5987D02*
G01X-5796D01*
X47Y8949D02*
G01Y8359D01*
X342Y8654D02*
G01X-248D01*
X5983Y6636D02*
G01Y6046D01*
X6278Y6341D02*
G01X5687D01*
X6981Y-1088D02*
G01Y-1679D01*
X7277Y-1383D02*
G01X6686D01*
X3110Y-4524D02*
G01Y-5114D01*
X3406Y-4819D02*
G01X2815D01*
X-3038Y-4521D02*
G01Y-5111D01*
X-2743Y-4816D02*
G01X-3333D01*
X-7553Y10910D02*
G01Y10320D01*
X-7257Y10615D02*
G01X-7848D01*
X39Y13674D02*
G01Y13083D01*
X335Y13378D02*
G01X-256D01*
X7631Y10910D02*
G01Y10320D01*
X7927Y10615D02*
G01X7336D01*
X12808Y4705D02*
G01Y4115D01*
X13103Y4410D02*
G01X12513D01*
X10268Y-4043D02*
G01Y-4633D01*
X10563Y-4338D02*
G01X9973D01*
X4079Y-9236D02*
G01Y-9827D01*
X4374Y-9531D02*
G01X3784D01*
X-4000Y-9236D02*
G01Y-9827D01*
X-3705Y-9531D02*
G01X-4295D01*
X-10189Y-4043D02*
G01Y-4633D01*
X-9894Y-4338D02*
G01X-10484D01*
X-11592Y3914D02*
G01Y3323D01*
X-11297Y3618D02*
G01X-11887D01*
X-14281Y10130D02*
G01Y9540D01*
X-13985Y9835D02*
G01X-14576D01*
X-8228Y16183D02*
G01Y15592D01*
X-7933Y15888D02*
G01X-8524D01*
X39Y18398D02*
G01Y17808D01*
X335Y18103D02*
G01X-256D01*
X8307Y16183D02*
G01Y15592D01*
X8602Y15888D02*
G01X8012D01*
X14359Y10130D02*
G01Y9540D01*
X14655Y9835D02*
G01X14064D01*
X16575Y1863D02*
G01Y1272D01*
X16870Y1567D02*
G01X16280D01*
X14359Y-6405D02*
G01Y-6996D01*
X14655Y-6700D02*
G01X14064D01*
X8307Y-12457D02*
G01Y-13048D01*
X8602Y-12753D02*
G01X8012D01*
X39Y-14673D02*
G01Y-15263D01*
X335Y-14968D02*
G01X-256D01*
X-8228Y-12457D02*
G01Y-13048D01*
X-7933Y-12753D02*
G01X-8524D01*
X-14281Y-6405D02*
G01Y-6996D01*
X-13985Y-6700D02*
G01X-14576D01*
X-16496Y1863D02*
G01Y1272D01*
X-16201Y1567D02*
G01X-16791D01*
M02*
