G04 CAM350 V10.2.0 (Build 386) Date:  Sat Feb 01 15:25:50 2025 *
G04 Database: c:\users\comp1\desktop\ajinkya_\gerber data\round 115\round_pcb1.cam *
G04 Layer 49: Layer_49 *
%FSLAX24Y24*%
%MOIN*%
%SFA1.000B1.000*%

%MIA0B0*%
%IPPOS*%
%LNLayer_49*%
%LPD*%
G54D433*
X-14772Y8739D03*
X-13899Y8750D03*
X-14743Y7742D03*
X-13881Y7712D03*
X-14814Y8768D03*
X-13941Y8780D03*
X-14784Y7771D03*
X-13923Y7742D03*
X-8102Y9558D03*
X-7229Y9570D03*
X-8072Y8561D03*
X-7211Y8532D03*
X-8762Y14817D03*
X-7889Y14829D03*
X-8732Y13820D03*
X-7871Y13791D03*
X-446Y17005D03*
X427Y17017D03*
X-416Y16008D03*
X445Y15978D03*
X7859Y14817D03*
X8732Y14828D03*
X7889Y13820D03*
X8750Y13790D03*
X-392Y12315D03*
X481Y12327D03*
X-363Y11319D03*
X498Y11289D03*
X7143Y9552D03*
X8016Y9564D03*
X7172Y8555D03*
X8033Y8526D03*
X13867Y8747D03*
X14740Y8759D03*
X13896Y7750D03*
X14757Y7720D03*
X-501Y7626D03*
X372Y7638D03*
X-472Y6629D03*
X389Y6600D03*
X-6022Y4878D03*
X-5149Y4889D03*
X-5992Y3881D03*
X-5131Y3851D03*
X-12111Y2507D03*
X-11239Y2519D03*
X-12082Y1511D03*
X-11221Y1481D03*
X5480Y5211D03*
X6352Y5223D03*
X5509Y4215D03*
X6370Y4185D03*
X12209Y3389D03*
X13082Y3400D03*
X12239Y2392D03*
X13100Y2362D03*
X16108Y499D03*
X16981Y511D03*
X16137Y-498D03*
X16998Y-528D03*
X6518Y-2421D03*
X7391Y-2409D03*
X6547Y-3418D03*
X7408Y-3447D03*
X-7355Y-1100D03*
X-6482Y-1088D03*
X-7326Y-2097D03*
X-6465Y-2126D03*
X-16980Y439D03*
X-16107Y451D03*
X-16951Y-558D03*
X-16090Y-587D03*
X-3533Y-5848D03*
X-2660Y-5837D03*
X-3503Y-6845D03*
X-2642Y-6875D03*
X2654Y-5878D03*
X3527Y-5866D03*
X2684Y-6874D03*
X3545Y-6904D03*
X9809Y-5447D03*
X10682Y-5435D03*
X9839Y-6444D03*
X10700Y-6474D03*
X13808Y-7771D03*
X14681Y-7759D03*
X13837Y-8768D03*
X14698Y-8798D03*
X3716Y-10596D03*
X4589Y-10585D03*
X3745Y-11593D03*
X4606Y-11623D03*
X7797Y-13840D03*
X8670Y-13828D03*
X7827Y-14837D03*
X8688Y-14867D03*
X-472Y-16010D03*
X401Y-15998D03*
X-443Y-17007D03*
X419Y-17037D03*
X-4524Y-10678D03*
X-3651Y-10667D03*
X-4494Y-11675D03*
X-3633Y-11705D03*
X-8735Y-13816D03*
X-7862Y-13804D03*
X-8706Y-14813D03*
X-7844Y-14843D03*
X-14798Y-7776D03*
X-13926Y-7764D03*
X-14769Y-8773D03*
X-13908Y-8802D03*
X-10758Y-5452D03*
X-9885Y-5441D03*
X-10728Y-6449D03*
X-9867Y-6479D03*
M02*
