M48
INCH,TZ
VER,1
FMAT,2
T01C0.055118
%
T01
X4158Y3543
X3189
X10457
X9489
X16756
X23055
X29355
X35654
X41953
X48252
X54552
X60851
X67150
X73449
X15788
X22087
X28386
X34685
X40985
X47284
X53583
X59882
X66181
X72481
X80526Y3560
X86048Y3543
X92347
X98646
X104945
X111244
X117544
X123843
X130142
X136441
X79558Y3560
X85079Y3543
X91378
X97678
X103977
X110276
X116575
X122874
X129174
X135473
X143241Y3494
X149040Y3543
X142272Y3494
X148071Y3543
M30
