M48
INCH,TZ
VER,1
FMAT,2
T01C0.059055
%
T01
X-4780Y13748
Y12780
X-7833Y11115
Y10146
X0Y14591
Y13622
X4780Y13748
Y12780
X8079Y11134
Y10165
X12144Y7626
Y6658
X17268Y-790
Y-1759
X4780Y-14752
Y-15720
X0Y-13391
Y-14359
X-4780Y-13984
Y-14953
X-8283Y-10068
Y-11037
X-15640Y-5372
Y-6341
X13141Y-3433
Y-4402
X-13764Y3042
Y2073
X-12105Y7603
Y6634
X-9878Y2356
Y1388
X-3433Y-8818
Y-9786
X4052Y-8828
Y-9796
X8696Y-4406
Y-5375
X9894Y2359
Y1391
X6446Y8297
Y7328
X0Y10634
Y9666
X-6453Y8305
Y7337
X0Y6717
Y5748
Y-5517
Y-6486
X-9683Y15685
Y14717
X-14659Y12254
Y11286
X-16293Y8060
Y7092
X-17881Y1035
Y66
X-14799Y-11063
Y-12032
X-9693Y-14450
Y-15418
X-13Y-17299
Y-18267
X8636Y-14743
Y-15711
X15823Y-11827
Y-12796
X17911Y-7365
Y-8334
X17730Y3170
Y2201
X16293Y8060
Y7092
X15640Y12264
Y11295
X9683Y15685
Y14717
X5046Y17803
Y16834
X0Y18528
Y17559
X-5046Y17803
Y16834
X5285Y3666
Y2697
Y-2437
Y-3405
X-5285Y-2437
Y-3405
Y3666
Y2697
X-33Y2763
X-25Y-2739
X-12179Y-1320
Y-2289
X13684Y2698
Y1730
X-10412Y-5661
Y-6630
X11951Y-7652
Y-8621
M30
