G04 CAM350 V10.2.0 (Build 386) Date:  Sat Feb 01 15:25:49 2025 *
G04 Database: c:\users\comp1\desktop\ajinkya_\gerber data\round 115\round_pcb1.cam *
G04 Layer 35: track *
%FSLAX24Y24*%
%MOIN*%
%SFA1.000B1.000*%

%MIA0B0*%
%IPPOS*%
%AMdonut_sr2x1*
4,1,4,-0.02953,-0.02953,-0.02953,0.02953,0.02953,0.02953,0.02953,-0.02953,-0.02953,-0.02953,0.00000*
4,0,26,0.01378,0.00000,0.01338,0.00329,0.01221,0.00639,0.01033,0.00912,0.00785,0.01132,0.00492,0.01287,0.00171,0.01367,-0.00161,0.01369,-0.00483,0.01291,-0.00777,0.01138,-0.01026,0.00920,-0.01216,0.00648,-0.01336,0.00339,-0.01378,0.00000,-0.01338,-0.00329,-0.01221,-0.00639,-0.01033,-0.00912,-0.00785,-0.01132,-0.00492,-0.01287,-0.00171,-0.01367,0.00161,-0.01369,0.00483,-0.01291,0.00777,-0.01138,0.01026,-0.00920,0.01216,-0.00648,0.01336,-0.00339,0.01378,0.00000,0.00000*
%
%ADD15C,0.00790*%
%ADD70donut_sr2x1*%
%ADD29C,0.07874X0.03150*%
%ADD30C,0.05906*%
%ADD401R,0.03937X0.07677*%
%ADD402R,0.07559X0.07677*%
%ADD415R,0.17717X0.05906*%
%ADD416R,0.17717X0.07087*%
%ADD420R,0.13780X0.07874*%
%ADD421R,0.23622X0.07874*%
%LNtrack*%
%LPD*%
G36*
X-1846Y683D02*
G01Y697D01*
X-1841*
X-1846Y683*
G37*
G36*
X-21862Y23338D02*
G01Y24020D01*
X-21772*
Y23338*
X-21862*
G37*
G36*
X-17986Y23771D02*
G01Y23851D01*
X-17959Y23866*
X-17929Y23886*
X-17899Y23908*
X-17870Y23933*
X-17843Y23957*
X-17820Y23981*
X-17801Y24004*
X-17789Y24022*
X-17735*
Y23338*
X-17819*
Y23871*
X-17853Y23845*
X-17900Y23815*
X-17948Y23788*
X-17986Y23771*
G37*
G36*
X-18516D02*
G01Y23851D01*
X-18488Y23866*
X-18458Y23886*
X-18428Y23908*
X-18399Y23933*
X-18372Y23957*
X-18349Y23981*
X-18331Y24004*
X-18319Y24022*
X-18265*
Y23338*
X-18348*
Y23871*
X-18382Y23845*
X-18429Y23815*
X-18477Y23788*
X-18516Y23771*
G37*
G36*
X-16722Y23930D02*
G01Y24011D01*
X-16281*
Y23946*
X-16308Y23912*
X-16339Y23868*
X-16373Y23814*
X-16406Y23755*
X-16439Y23693*
X-16468Y23633*
X-16492Y23576*
X-16509Y23526*
X-16520Y23482*
X-16529Y23436*
X-16536Y23388*
X-16541Y23338*
X-16627*
X-16625Y23362*
X-16621Y23391*
X-16604Y23464*
X-16578Y23549*
X-16545Y23641*
X-16506Y23731*
X-16465Y23813*
X-16424Y23882*
X-16406Y23909*
X-16389Y23930*
X-16722*
G37*
G36*
X-17521Y23517D02*
G01X-17433Y23524D01*
X-17427Y23500*
X-17416Y23477*
X-17401Y23455*
X-17383Y23436*
X-17364Y23419*
X-17343Y23407*
X-17322Y23398*
X-17302Y23396*
X-17279Y23399*
X-17255Y23411*
X-17231Y23428*
X-17208Y23450*
X-17188Y23476*
X-17173Y23504*
X-17162Y23533*
X-17158Y23562*
X-17162Y23589*
X-17172Y23616*
X-17188Y23642*
X-17207Y23666*
X-17229Y23686*
X-17254Y23702*
X-17279Y23712*
X-17304Y23716*
X-17320Y23714*
X-17338Y23710*
X-17374Y23694*
X-17406Y23673*
X-17419Y23661*
X-17428Y23650*
X-17506Y23660*
X-17440Y24010*
X-17102*
Y23930*
X-17374*
X-17410Y23747*
X-17379Y23766*
X-17363Y23773*
X-17347Y23779*
X-17331Y23784*
X-17315Y23787*
X-17298Y23789*
X-17282Y23790*
X-17265Y23789*
X-17247Y23784*
X-17229Y23778*
X-17211Y23769*
X-17176Y23746*
X-17142Y23716*
X-17113Y23682*
X-17090Y23645*
X-17082Y23626*
X-17075Y23607*
X-17071Y23588*
X-17070Y23569*
X-17071Y23546*
X-17073Y23525*
X-17077Y23503*
X-17083Y23483*
X-17091Y23463*
X-17100Y23445*
X-17111Y23427*
X-17124Y23410*
X-17141Y23390*
X-17159Y23373*
X-17180Y23359*
X-17201Y23348*
X-17224Y23338*
X-17249Y23332*
X-17275Y23328*
X-17302Y23327*
X-17320Y23328*
X-17338Y23332*
X-17375Y23344*
X-17410Y23364*
X-17444Y23390*
X-17473Y23419*
X-17497Y23451*
X-17513Y23484*
X-17519Y23501*
X-17521Y23517*
G37*
G36*
X-15327Y23501D02*
G01Y23578D01*
X-15016Y24020*
X-14948*
Y23578*
X-14856*
Y23501*
X-14948*
Y23338*
X-15031*
Y23501*
X-15327*
G37*
G36*
X-14736Y23338D02*
G01Y24020D01*
X-14480*
X-14420Y24018*
X-14396Y24016*
X-14376Y24013*
X-14350Y24005*
X-14322Y23990*
X-14295Y23969*
X-14269Y23943*
X-14248Y23913*
X-14231Y23881*
X-14220Y23850*
X-14217Y23822*
X-14218Y23806*
X-14222Y23789*
X-14228Y23771*
X-14236Y23753*
X-14259Y23719*
X-14274Y23702*
X-14290Y23686*
X-14308Y23671*
X-14328Y23658*
X-14349Y23646*
X-14371Y23635*
X-14395Y23627*
X-14419Y23621*
X-14445Y23617*
X-14472Y23615*
X-14646*
Y23338*
X-14736*
G37*
G36*
X-16195Y23557D02*
G01X-16110Y23565D01*
X-16104Y23538*
X-16090Y23510*
X-16069Y23483*
X-16042Y23459*
X-16010Y23438*
X-15975Y23422*
X-15941Y23411*
X-15909Y23408*
X-15881Y23410*
X-15851Y23418*
X-15822Y23431*
X-15794Y23447*
X-15772Y23466*
X-15754Y23486*
X-15744Y23506*
X-15740Y23523*
X-15742Y23536*
X-15747Y23550*
X-15754Y23563*
X-15764Y23577*
X-15776Y23590*
X-15789Y23602*
X-15804Y23612*
X-15820Y23620*
X-15866Y23633*
X-15943Y23654*
X-16021Y23676*
X-16052Y23687*
X-16073Y23695*
X-16091Y23707*
X-16108Y23723*
X-16125Y23741*
X-16139Y23761*
X-16152Y23783*
X-16161Y23804*
X-16167Y23824*
X-16169Y23843*
X-16168Y23857*
X-16164Y23872*
X-16157Y23888*
X-16148Y23904*
X-16137Y23921*
X-16123Y23937*
X-16090Y23968*
X-16051Y23994*
X-16009Y24014*
X-15967Y24027*
X-15948Y24030*
X-15929Y24031*
X-15910Y24030*
X-15889Y24026*
X-15867Y24021*
X-15844Y24013*
X-15800Y23992*
X-15779Y23979*
X-15759Y23964*
X-15741Y23948*
X-15725Y23931*
X-15710Y23914*
X-15698Y23896*
X-15688Y23878*
X-15680Y23860*
X-15676Y23843*
X-15674Y23828*
X-15760Y23821*
X-15766Y23845*
X-15778Y23869*
X-15795Y23891*
X-15816Y23911*
X-15841Y23927*
X-15868Y23940*
X-15896Y23949*
X-15926Y23952*
X-15956Y23949*
X-15985Y23942*
X-16011Y23930*
X-16035Y23916*
X-16055Y23900*
X-16069Y23883*
X-16079Y23866*
X-16082Y23850*
X-16081Y23832*
X-16076Y23816*
X-16068Y23802*
X-16056Y23789*
X-16038Y23779*
X-16006Y23767*
X-15918Y23741*
X-15828Y23716*
X-15769Y23697*
X-15747Y23684*
X-15726Y23667*
X-15707Y23647*
X-15689Y23624*
X-15674Y23600*
X-15663Y23576*
X-15656Y23552*
X-15653Y23531*
X-15655Y23516*
X-15659Y23500*
X-15666Y23483*
X-15676Y23466*
X-15688Y23448*
X-15702Y23430*
X-15737Y23397*
X-15778Y23368*
X-15822Y23346*
X-15844Y23338*
X-15865Y23332*
X-15886Y23328*
X-15905Y23327*
X-15929Y23328*
X-15954Y23332*
X-15979Y23338*
X-16005Y23347*
X-16030Y23357*
X-16055Y23370*
X-16078Y23385*
X-16100Y23402*
X-16121Y23420*
X-16139Y23439*
X-16155Y23459*
X-16169Y23479*
X-16180Y23500*
X-16188Y23520*
X-16193Y23539*
X-16195Y23557*
G37*
G36*
X-13203Y23338D02*
G01Y24020D01*
X-12968*
X-12931Y24019*
X-12898Y24017*
X-12870Y24014*
X-12847Y24010*
X-12819Y24002*
X-12793Y23991*
X-12769Y23977*
X-12747Y23961*
X-12727Y23940*
X-12708Y23911*
X-12690Y23877*
X-12673Y23839*
X-12660Y23799*
X-12649Y23758*
X-12642Y23719*
X-12640Y23683*
X-12642Y23651*
X-12648Y23617*
X-12657Y23582*
X-12669Y23548*
X-12685Y23514*
X-12702Y23483*
X-12722Y23455*
X-12744Y23430*
X-12768Y23407*
X-12794Y23389*
X-12821Y23373*
X-12848Y23360*
X-12877Y23350*
X-12905Y23344*
X-12932Y23339*
X-12957Y23338*
X-13203*
G37*
G36*
X-22564D02*
G01Y24020D01*
X-22330*
X-22293Y24019*
X-22260Y24017*
X-22232Y24014*
X-22209Y24010*
X-22181Y24002*
X-22154Y23991*
X-22131Y23977*
X-22109Y23961*
X-22089Y23940*
X-22069Y23911*
X-22051Y23877*
X-22035Y23839*
X-22021Y23799*
X-22011Y23758*
X-22004Y23719*
X-22001Y23683*
X-22004Y23651*
X-22009Y23617*
X-22019Y23582*
X-22031Y23548*
X-22046Y23514*
X-22064Y23483*
X-22084Y23455*
X-22105Y23430*
X-22130Y23407*
X-22155Y23389*
X-22182Y23373*
X-22210Y23360*
X-22239Y23350*
X-22267Y23344*
X-22294Y23339*
X-22319Y23338*
X-22564*
G37*
G36*
X-21684Y24020D02*
G01X-21574D01*
X-21440Y23814*
X-21404Y23757*
X-21370Y23699*
X-21337Y23756*
X-21296Y23819*
X-21164Y24020*
X-21059*
X-21331Y23627*
Y23338*
X-21421*
Y23627*
X-21684Y24020*
G37*
G36*
X-19514Y23338D02*
G01X-19251Y23693D01*
X-19483Y24020*
X-19375*
X-19252Y23845*
X-19219Y23797*
X-19197Y23761*
X-19172Y23799*
X-19143Y23839*
X-19006Y24020*
X-18908*
X-19147Y23699*
X-18890Y23338*
X-19001*
X-19173Y23581*
X-19202Y23627*
X-19235Y23576*
X-19406Y23338*
X-19514*
G37*
G36*
X-20149D02*
G01X-19885Y23693D01*
X-20117Y24020*
X-20010*
X-19887Y23845*
X-19854Y23797*
X-19832Y23761*
X-19807Y23799*
X-19778Y23839*
X-19641Y24020*
X-19543*
X-19782Y23699*
X-19524Y23338*
X-19636*
X-19807Y23581*
X-19837Y23627*
X-19869Y23576*
X-20040Y23338*
X-20149*
G37*
G36*
X-13912D02*
G01X-13651Y24020D01*
X-13554*
X-13275Y23338*
X-13378*
X-13457Y23545*
X-13742*
X-13817Y23338*
X-13912*
G37*
G36*
X-21053D02*
G01X-20792Y24020D01*
X-20694*
X-20416Y23338*
X-20518*
X-20598Y23545*
X-20883*
X-20957Y23338*
X-21053*
G37*
G36*
X-7754Y1140D02*
G01Y4114D01*
X2237*
G75*
G03X2433Y4311I-1J197*
G01Y4580*
X10946*
Y2717*
G03X11143Y2520I197J0*
G01X14325*
Y-72*
G03X14522Y-269I197J0*
G01X22144*
X22135Y-689*
X22118Y-1110*
X22093Y-1530*
X22060Y-1950*
X22029Y-2273*
X14396Y-2284*
X10835Y1011*
G03X10702Y1063I-133J-145*
G01X1657*
G03X0Y1969I-1657J-1063*
G01X-125Y1965*
G03X-1640Y1089I125J-1965*
G01X-1973Y1092*
G03X-2110Y1093I-70J-184*
G01X-7754Y1140*
G37*
G36*
X-9985Y4508D02*
G01Y8804D01*
X-3554*
Y6965*
G03X-3357Y6769I197J1*
G01X5983*
G03X6180Y6965I0J197*
G01Y8901*
X11961*
Y8165*
G03X12158Y7969I197J1*
G01X20662*
X20810Y7574*
X20950Y7177*
X21083Y6778*
X21208Y6376*
X21325Y5972*
X21435Y5566*
X21537Y5157*
X21631Y4747*
X21717Y4335*
X21796Y3921*
X21866Y3506*
X21929Y3090*
X21984Y2673*
X22031Y2255*
X22069Y1836*
X22100Y1416*
X22123Y995*
X22138Y575*
X22145Y125*
X14719*
Y2717*
G03X14522Y2913I-197J-1*
G01X11339*
Y4776*
G03X11143Y4973I-197J0*
G01X2237*
G03X2040Y4776I0J-197*
G01Y4508*
X-9985*
G37*
G36*
Y9198D02*
G01Y10712D01*
G03X-9724Y11692I-1708J980*
G01X-9728Y11818*
G03X-9985Y12673I-1965J-124*
G01Y14071*
X-7033*
Y11737*
G03X-6836Y11541I197J1*
G01X2328*
G03X2524Y11737I-1J197*
G01Y15416*
G03X2328Y15613I-197J0*
G01X-1887*
Y16368*
X6692*
Y14301*
G03X6889Y14104I197J0*
G01X9935*
G03X10132Y14301I0J197*
G01Y19692*
X10505Y19496*
X10873Y19293*
X11238Y19082*
X11599Y18865*
X11955Y18642*
X12307Y18411*
X12655Y18174*
X12998Y17930*
X13336Y17680*
X13670Y17423*
X13999Y17160*
X14322Y16891*
X14641Y16616*
X14954Y16334*
X15262Y16047*
X15564Y15754*
X15860Y15456*
X16151Y15151*
X16436Y14842*
X16715Y14527*
X16989Y14206*
X17255Y13881*
X17516Y13550*
X17771Y13215*
X18018Y12875*
X18260Y12530*
X18495Y12181*
X18723Y11827*
X18944Y11469*
X19159Y11107*
X19367Y10741*
X19567Y10371*
X19761Y9997*
X19947Y9620*
X20126Y9239*
X20298Y8855*
X20463Y8467*
X20506Y8362*
X12355*
Y9098*
G03X12158Y9294I-197J-1*
G01X5983*
G03X5786Y9098I0J-197*
G01Y7162*
X-3160*
Y9001*
G03X-3357Y9198I-197J0*
G01X-9985*
G37*
G36*
X1387Y-2866D02*
G01Y-1397D01*
G03X1969Y0I-1387J1397*
G01X1965Y125*
G03X1851Y670I-1964J-126*
G01X10624*
X14186Y-2626*
G03X14319Y-2678I133J145*
G01X21985Y-2667*
X21930Y-3084*
X21867Y-3500*
X21797Y-3915*
X21718Y-4329*
X21632Y-4741*
X21538Y-5151*
X21436Y-5560*
X21327Y-5966*
X21210Y-6370*
X21085Y-6772*
X20952Y-7172*
X20812Y-7569*
X20665Y-7963*
X20509Y-8354*
X20347Y-8742*
X20177Y-9128*
X20000Y-9509*
X19816Y-9888*
X19624Y-10263*
X19426Y-10634*
X19220Y-11001*
X19007Y-11364*
X18788Y-11723*
X18562Y-12078*
X18329Y-12429*
X18089Y-12775*
X17843Y-13117*
X17591Y-13453*
X17332Y-13785*
X17067Y-14112*
X16796Y-14434*
X16518Y-14751*
X16235Y-15062*
X15946Y-15368*
X15651Y-15668*
X15350Y-15963*
X15044Y-16251*
X14732Y-16534*
X14416Y-16811*
X14093Y-17082*
X13766Y-17347*
X13434Y-17606*
X13097Y-17858*
X12755Y-18103*
X12409Y-18343*
X12058Y-18575*
X11703Y-18801*
X11343Y-19020*
X10980Y-19232*
X10612Y-19437*
X10241Y-19635*
X9835Y-19842*
Y-14409*
G03X9639Y-14212I-197J0*
G01X7239*
Y-12465*
X9882*
G03X11692Y-13661I1811J773*
G01X11818Y-13657*
G03X13661Y-11692I-126J1965*
G01X13657Y-11567*
G03X13625Y-11317I-1965J-124*
G01X15931*
G03X16128Y-11120I0J197*
G01Y-8331*
G03X15931Y-8134I-197J0*
G01X11908*
Y-5909*
G03X11711Y-5712I-197J0*
G01X8554*
Y-3063*
G03X8357Y-2866I-197J0*
G01X1387*
G37*
G36*
X-4252Y-6264D02*
G01Y-5257D01*
X-2043*
G03X-1846Y-5061I0J197*
G01Y-683*
G03X0Y-1969I1846J683*
G01X125Y-1965*
G03X993Y-1700I-125J1965*
G01Y-3063*
G03X1190Y-3259I197J1*
G01X8160*
Y-5909*
G03X8357Y-6106I197J0*
G01X11514*
Y-8247*
G03X11495Y-8331I178J-84*
G01X11499Y-8371*
G03X11692Y-8528I193J40*
G01X15734*
Y-10923*
X13504*
G03X11692Y-9724I-1812J-770*
G01X11567Y-9728*
G03X9724Y-11692I126J-1965*
G01X9728Y-11818*
G03X9761Y-12072I1964J126*
G01X7042*
G03X6845Y-12269I0J-197*
G01Y-14409*
G03X7042Y-14606I197J0*
G01X9442*
Y-20032*
X9059Y-20208*
X8674Y-20376*
X8285Y-20538*
X7893Y-20691*
X7498Y-20838*
X7101Y-20976*
X6701Y-21108*
X6299Y-21231*
X5894Y-21347*
X5487Y-21455*
X5078Y-21556*
X4668Y-21648*
X4256Y-21733*
X3842Y-21810*
X3427Y-21879*
X3010Y-21940*
X2593Y-21993*
X2174Y-22039*
X1890Y-22065*
Y-16605*
G03X1693Y-16408I-197J0*
G01X-1126*
Y-14870*
X866*
G03X1063Y-14673I0J197*
G01Y-12939*
X5506*
G03X5703Y-12742I0J197*
G01Y-11206*
G03X5506Y-11009I-197J0*
G01X2431*
Y-8524*
X4732*
G03X4929Y-8327I0J197*
G01Y-6461*
G03X4732Y-6264I-197J0*
G01X-4252*
G37*
G36*
X-17593Y146D02*
G01Y5021D01*
X-14959Y5025*
G03X-14775Y5152I0J197*
G01X-14765Y5191*
X-14762Y5222*
X-14766Y5261*
G03X-14821Y5362I-193J-40*
G01Y6446*
X-13203*
G03X-13006Y6639I0J197*
G01X-12974Y8220*
Y8224*
G03X-13171Y8421I-197J0*
G01X-15388*
Y10656*
X-13366*
G03X-11692Y9724I1674J1037*
G01X-11567Y9728*
G03X-10379Y10226I-125J1965*
G01Y4508*
X-12671*
G03X-12868Y4311I0J-197*
G01Y2006*
G03X-12671Y1809I197J0*
G01X-10437*
Y-1648*
G03X-10241Y-1845I197J0*
G01X-5359*
Y-2658*
X-11663*
G03X-11860Y-2855I0J-197*
G01Y-6000*
G03X-11663Y-6197I197J0*
G01X-8389*
Y-11148*
G03X-8193Y-11344I197J1*
G01X-3135*
Y-12749*
X-4919*
G03X-5116Y-12946I0J-197*
G01Y-21547*
X-5524Y-21446*
X-5931Y-21337*
X-6335Y-21220*
X-6622Y-21132*
Y-14348*
G03X-6819Y-14151I-197J0*
G01X-12549*
Y-13465*
G03X-11692Y-13661I856J1773*
G01X-11567Y-13657*
G03X-9724Y-11692I-126J1965*
G01X-9728Y-11567*
G03X-11692Y-9724I-1964J-126*
G01X-11818Y-9728*
G03X-12549Y-9920I125J-1965*
G01Y-8354*
G03X-12746Y-8157I-197J0*
G01X-16611*
Y-5103*
X-15351*
G03X-15154Y-4906I0J197*
G01Y-51*
G03X-15351Y146I-197J0*
G01X-17593*
G37*
G36*
X-12474Y2203D02*
G01Y4114D01*
X-8148*
Y944*
G03X-7952Y748I197J1*
G01X-2240Y700*
Y-4864*
X-4448*
G03X-4645Y-5061I0J-197*
G01Y-6461*
G03X-4448Y-6658I197J0*
G01X4535*
Y-8130*
X2235*
G03X2038Y-8327I0J-197*
G01Y-11206*
G03X2235Y-11403I197J0*
G01X5309*
Y-12545*
X866*
G03X669Y-12742I0J-197*
G01Y-14476*
X-1323*
G03X-1520Y-14673I0J-197*
G01Y-16562*
X-1525Y-16605*
X-1521Y-16644*
G03X-1328Y-16802I193J39*
G01X1496*
Y-22095*
X1076Y-22120*
X656Y-22136*
X235Y-22144*
X0Y-22146*
X-421Y-22142*
X-842Y-22130*
X-1262Y-22110*
X-1682Y-22082*
X-2101Y-22046*
X-2520Y-22002*
X-2938Y-21950*
X-3354Y-21890*
X-3770Y-21822*
X-4184Y-21747*
X-4596Y-21663*
X-4722Y-21636*
Y-13143*
X-2939*
G03X-2742Y-12946I0J197*
G01Y-11148*
G03X-2939Y-10951I-197J0*
G01X-7996*
Y-6000*
G03X-8193Y-5803I-197J0*
G01X-11467*
Y-3052*
X-5163*
G03X-4966Y-2855I0J197*
G01Y-1648*
G03X-5163Y-1451I-197J0*
G01X-10044*
Y2006*
G03X-10241Y2203I-197J0*
G01X-12474*
G37*
G36*
X-22146Y0D02*
G01X-22142Y421D01*
X-22130Y842*
X-22110Y1262*
X-22082Y1682*
X-22046Y2101*
X-22002Y2520*
X-21950Y2938*
X-21890Y3354*
X-21822Y3770*
X-21747Y4184*
X-21663Y4596*
X-21572Y5007*
X-21473Y5416*
X-21366Y5823*
X-21252Y6228*
X-21130Y6631*
X-21000Y7032*
X-20862Y7429*
X-20717Y7825*
X-20565Y8217*
X-20405Y8606*
X-20238Y8993*
X-20063Y9376*
X-19881Y9755*
X-19692Y10131*
X-19496Y10504*
X-19293Y10872*
X-19083Y11237*
X-18866Y11598*
X-18642Y11954*
X-18412Y12306*
X-18174Y12654*
X-17931Y12997*
X-17680Y13336*
X-17424Y13669*
X-17161Y13998*
X-16892Y14321*
X-16616Y14640*
X-16335Y14953*
X-16048Y15261*
X-15755Y15563*
X-15456Y15860*
X-15152Y16151*
X-14843Y16436*
X-14528Y16715*
X-14207Y16988*
X-13882Y17255*
X-13551Y17515*
X-13216Y17770*
X-12876Y18018*
X-12531Y18259*
X-12182Y18494*
X-11828Y18722*
X-11470Y18944*
X-11108Y19158*
X-10742Y19366*
X-10372Y19567*
X-9998Y19760*
X-9621Y19947*
X-9240Y20126*
X-8856Y20298*
X-8469Y20463*
X-8078Y20620*
X-7685Y20770*
X-7289Y20912*
X-6890Y21047*
X-6489Y21174*
X-6085Y21293*
X-5679Y21405*
X-5271Y21509*
X-4862Y21605*
X-4450Y21694*
X-4037Y21775*
X-3623Y21847*
X-3207Y21912*
X-2790Y21969*
X-2372Y22018*
X-1953Y22059*
X-1533Y22093*
X-1113Y22118*
X-692Y22135*
X-272Y22144*
X0Y22146*
X421Y22142*
X842Y22130*
X1262Y22110*
X1682Y22082*
X2101Y22046*
X2520Y22002*
X2938Y21950*
X3354Y21890*
X3770Y21822*
X4184Y21747*
X4596Y21663*
X5007Y21572*
X5416Y21473*
X5823Y21366*
X6228Y21252*
X6631Y21130*
X7032Y21000*
X7429Y20862*
X7825Y20717*
X8217Y20565*
X8606Y20405*
X8993Y20238*
X9376Y20063*
X9739Y19889*
Y14498*
X7086*
Y16565*
G03X6889Y16762I-197J0*
G01X-2084*
G03X-2281Y16565I0J-197*
G01Y15416*
G03X-2084Y15219I197J0*
G01X2131*
Y11934*
X-6639*
Y14268*
G03X-6836Y14465I-197J0*
G01X-10182*
G03X-10379Y14268I0J-197*
G01Y13159*
G03X-11692Y13661I-1313J-1467*
G01X-11818Y13657*
G03X-13661Y11692I126J-1964*
G01X-13657Y11567*
G03X-13553Y11050I1964J126*
G01X-15585*
G03X-15781Y10853I1J-197*
G01Y8224*
G03X-15585Y8028I197J1*
G01X-13372*
X-13396Y6839*
X-15018*
G03X-15215Y6643I0J-197*
G01Y5418*
X-17790Y5414*
G03X-17987Y5217I0J-197*
G01Y-51*
G03X-17790Y-248I197J0*
G01X-15548*
Y-4709*
X-16807*
G03X-17004Y-4906I0J-197*
G01Y-8354*
G03X-16807Y-8551I197J0*
G01X-12943*
Y-10172*
G03X-13661Y-11692I1251J-1520*
G01X-13657Y-11818*
G03X-12943Y-13213I1965J125*
G01Y-14348*
G03X-12746Y-14545I197J0*
G01X-7016*
Y-21005*
X-7414Y-20868*
X-7809Y-20723*
X-8202Y-20571*
X-8591Y-20411*
X-8978Y-20244*
X-9361Y-20070*
X-9741Y-19889*
X-10117Y-19700*
X-10489Y-19504*
X-10858Y-19301*
X-11223Y-19091*
X-11584Y-18875*
X-11940Y-18651*
X-12293Y-18421*
X-12641Y-18184*
X-12984Y-17940*
X-13322Y-17690*
X-13656Y-17434*
X-13985Y-17171*
X-14309Y-16902*
X-14628Y-16627*
X-14941Y-16346*
X-15249Y-16059*
X-15551Y-15767*
X-15848Y-15468*
X-16139Y-15164*
X-16425Y-14855*
X-16704Y-14540*
X-16977Y-14220*
X-17245Y-13895*
X-17505Y-13564*
X-17760Y-13229*
X-18008Y-12889*
X-18250Y-12545*
X-18485Y-12196*
X-18714Y-11842*
X-18935Y-11484*
X-19150Y-11122*
X-19358Y-10756*
X-19559Y-10386*
X-19753Y-10013*
X-19940Y-9636*
X-20119Y-9255*
X-20291Y-8871*
X-20456Y-8484*
X-20614Y-8093*
X-20764Y-7700*
X-20906Y-7304*
X-21042Y-6905*
X-21169Y-6504*
X-21289Y-6101*
X-21401Y-5695*
X-21505Y-5287*
X-21602Y-4878*
X-21691Y-4466*
X-21772Y-4053*
X-21845Y-3639*
X-21910Y-3223*
X-21967Y-2806*
X-22017Y-2388*
X-22058Y-1969*
X-22091Y-1549*
X-22117Y-1129*
X-22134Y-709*
X-22144Y-288*
X-22146Y0*
G37*
%LPC*%
G36*
X-15031Y23578D02*
G01Y23885D01*
X-15245Y23578*
X-15031*
G37*
G36*
X-14470Y23696D02*
G01X-14438Y23699D01*
X-14408Y23707*
X-14381Y23719*
X-14357Y23736*
X-14337Y23754*
X-14322Y23775*
X-14313Y23797*
X-14310Y23820*
X-14312Y23836*
X-14317Y23854*
X-14325Y23872*
X-14336Y23889*
X-14348Y23904*
X-14361Y23917*
X-14375Y23927*
X-14388Y23933*
X-14402Y23936*
X-14420Y23938*
X-14472Y23939*
X-14646*
Y23696*
X-14470*
G37*
G36*
X-12967Y23419D02*
G01X-12942Y23420D01*
X-12916Y23423*
X-12867Y23434*
X-12827Y23449*
X-12812Y23458*
X-12800Y23467*
X-12788Y23482*
X-12776Y23503*
X-12765Y23529*
X-12755Y23558*
X-12746Y23590*
X-12739Y23622*
X-12734Y23654*
X-12733Y23684*
X-12736Y23724*
X-12745Y23764*
X-12758Y23802*
X-12774Y23837*
X-12793Y23868*
X-12813Y23894*
X-12834Y23914*
X-12853Y23925*
X-12874Y23931*
X-12900Y23936*
X-12932Y23938*
X-12970Y23939*
X-13113*
Y23419*
X-12967*
G37*
G36*
X-22329D02*
G01X-22303Y23420D01*
X-22278Y23423*
X-22229Y23434*
X-22188Y23449*
X-22173Y23458*
X-22162Y23467*
X-22150Y23482*
X-22138Y23503*
X-22127Y23529*
X-22116Y23558*
X-22107Y23590*
X-22100Y23622*
X-22096Y23654*
X-22094Y23684*
X-22098Y23724*
X-22106Y23764*
X-22119Y23802*
X-22136Y23837*
X-22155Y23868*
X-22175Y23894*
X-22195Y23914*
X-22215Y23925*
X-22236Y23931*
X-22262Y23936*
X-22294Y23938*
X-22331Y23939*
X-22474*
Y23419*
X-22329*
G37*
G36*
X-13485Y23618D02*
G01X-13556Y23807D01*
X-13584Y23885*
X-13604Y23948*
X-13612Y23915*
X-13620Y23883*
X-13630Y23850*
X-13641Y23818*
X-13716Y23618*
X-13485*
G37*
G36*
X-20626D02*
G01X-20697Y23807D01*
X-20725Y23885*
X-20745Y23948*
X-20752Y23915*
X-20761Y23883*
X-20771Y23850*
X-20782Y23818*
X-20857Y23618*
X-20626*
G37*
G36*
X11692Y9724D02*
G01X11818Y9728D01*
X11943Y9740*
X12067Y9760*
X12189Y9787*
X12309Y9823*
X12427Y9866*
X12542Y9917*
X12653Y9974*
X12761Y10039*
X12864Y10110*
X12962Y10188*
X13056Y10272*
X13143Y10362*
X13225Y10457*
X13301Y10557*
X13370Y10662*
X13432Y10771*
X13487Y10884*
X13535Y11000*
X13575Y11119*
X13608Y11240*
X13633Y11363*
X13650Y11487*
X13659Y11612*
X13661Y11692*
X13657Y11818*
G03X11692Y13661I-1964J-126*
G01X11567Y13657*
G03X9724Y11692I126J-1964*
G01X9728Y11567*
G03X11692Y9724I1964J126*
G37*
%LPD*%
G54D70*
X-22035Y-21981D03*
X21965Y-21898D03*
Y22279D03*
X-21823Y22206D03*
G54D401*
X-19680Y-33792D03*
G54D402*
X-20649D03*
G54D15*
X-20295Y-33793D03*
G54D29*
X-7473Y-33903D03*
X0Y0D03*
G54D420*
X5243Y129D03*
G54D421*
X8881D03*
G54D420*
X5243Y1704D03*
G54D421*
X8881D03*
G54D29*
X-11692Y-11692D03*
Y11692D03*
X11692D03*
Y-11692D03*
G54D415*
X-6912Y-2102D03*
G54D416*
Y-1102D03*
G54D415*
X-5543Y3892D03*
G54D416*
Y4892D03*
G54D415*
X5Y6559D03*
G54D416*
Y7559D03*
G54D415*
X5941Y4246D03*
G54D416*
Y5246D03*
G54D415*
X6939Y-3478D03*
G54D416*
Y-2478D03*
G54D415*
X3068Y-6914D03*
G54D416*
Y-5914D03*
G54D415*
X-3080Y-6911D03*
G54D416*
Y-5911D03*
G54D415*
X-7595Y8521D03*
G54D416*
Y9521D03*
G54D415*
X-3Y11284D03*
G54D416*
Y12284D03*
G54D415*
X7589Y8521D03*
G54D416*
Y9521D03*
G54D415*
X12766Y2315D03*
G54D416*
Y3315D03*
G54D415*
X10226Y-6433D03*
G54D416*
Y-5433D03*
G54D415*
X4037Y-11626D03*
G54D416*
Y-10626D03*
G54D415*
X-4042Y-11626D03*
G54D416*
Y-10626D03*
G54D415*
X-10231Y-6433D03*
G54D416*
Y-5433D03*
G54D415*
X-11634Y1524D03*
G54D416*
Y2524D03*
G54D415*
X-14323Y7741D03*
G54D416*
Y8741D03*
G54D415*
X-8270Y13793D03*
G54D416*
Y14793D03*
G54D415*
X-3Y16008D03*
G54D416*
Y17008D03*
G54D415*
X8265Y13793D03*
G54D416*
Y14793D03*
G54D415*
X14317Y7741D03*
G54D416*
Y8741D03*
G54D415*
X16533Y-527D03*
G54D416*
Y473D03*
G54D415*
X14317Y-8795D03*
G54D416*
Y-7795D03*
G54D415*
X8265Y-14847D03*
G54D416*
Y-13847D03*
G54D415*
X-3Y-17063D03*
G54D416*
Y-16063D03*
G54D415*
X-8270Y-14847D03*
G54D416*
Y-13847D03*
G54D415*
X-14323Y-8795D03*
G54D416*
Y-7795D03*
G54D415*
X-16538Y-527D03*
G54D416*
Y473D03*
G54D29*
X-18651Y19015D03*
X19169Y19612D03*
Y-18359D03*
X-17929Y-19930D03*
G54D30*
X-12982Y15164D03*
X14300Y14756D03*
X13043Y-15794D03*
X-12354Y-16344D03*
G54D15*
X-22638Y-20669D02*
G01Y-22638D01*
X-20670*
X20669D02*
G01X22638D01*
Y-20669*
X20669Y23031D02*
G01X22638D01*
Y21063*
G01X-21790Y-23885D02*
Y-24789D01*
X-22091Y-23885D02*
X-21488D01*
X-20979D02*
X-21065Y-23928D01*
X-21151Y-24014D01*
X-21194Y-24100D01*
X-21237Y-24230D01*
Y-24445D01*
X-21194Y-24574D01*
X-21151Y-24660D01*
X-21065Y-24746D01*
X-20979Y-24789D01*
X-20807D01*
X-20721Y-24746D01*
X-20634Y-24660D01*
X-20591Y-24574D01*
X-20548Y-24445D01*
Y-24230D01*
X-20591Y-24100D01*
X-20634Y-24014D01*
X-20721Y-23928D01*
X-20807Y-23885D01*
X-20979D01*
X-20168D02*
Y-24789D01*
Y-23885D02*
X-19781D01*
X-19651Y-23928D01*
X-19608Y-23971D01*
X-19565Y-24057D01*
Y-24187D01*
X-19608Y-24273D01*
X-19651Y-24316D01*
X-19781Y-24359D01*
X-20168D01*
X-18417Y-23885D02*
Y-24789D01*
Y-24789D02*
X-17901D01*
X-17391Y-23885D02*
X-17736Y-24789D01*
X-17391Y-23885D02*
X-17047Y-24789D01*
X-17607Y-24488D02*
X-17176D01*
X-16882Y-23885D02*
X-16538Y-24316D01*
Y-24789D01*
X-16193Y-23885D02*
X-16538Y-24316D01*
X-15899Y-23885D02*
Y-24789D01*
Y-23885D02*
X-15339D01*
X-15899Y-24316D02*
X-15555D01*
X-15899Y-24789D02*
X-15339D01*
X-15002Y-23885D02*
Y-24789D01*
Y-23885D02*
X-14615D01*
X-14485Y-23928D01*
X-14442Y-23971D01*
X-14399Y-24057D01*
Y-24143D01*
X-14442Y-24230D01*
X-14485Y-24273D01*
X-14615Y-24316D01*
X-15002D01*
X-14701D02*
X-14399Y-24789D01*
X-20669Y23031D02*
G01X-22638D01*
Y21063*
M02*
